<?xml version="1.0" encoding="UTF-8"?>
<svg version="1.1" xmlns="http://www.w3.org/2000/svg" width="512" height="512">
<path d="M0 0 C5.50815417 0.17621546 10.06704691 3.12307509 14.796875 5.703125 C15.80967529 6.24598145 16.82247559 6.78883789 17.8659668 7.34814453 C34.3807244 16.31429732 49.52399543 26.53587084 64.046875 38.453125 C64.68544434 38.97455078 65.32401367 39.49597656 65.98193359 40.03320312 C74.06431989 46.68603726 81.61626892 53.83272639 89.046875 61.203125 C89.83634521 61.98324951 90.62581543 62.76337402 91.43920898 63.56713867 C105.40252733 77.60769269 105.40252733 77.60769269 105.734375 83.765625 C105.046875 87.453125 105.046875 87.453125 103.546875 89.953125 C100.06454308 92.04252415 96.94278856 92.34496063 93.046875 91.453125 C90.484375 89.390625 90.484375 89.390625 88.046875 86.453125 C86.91006442 85.31900828 85.76358291 84.19453134 84.609375 83.078125 C81.21753732 79.69372556 78.12107376 76.12716742 75.046875 72.453125 C71.39142932 73.9928916 69.06422214 76.18907264 66.27593994 78.98355103 C65.57865127 79.67827643 65.57865127 79.67827643 64.86727595 80.38703668 C63.31330221 81.93772034 61.76657748 83.49543613 60.21972656 85.05322266 C59.10627986 86.16723358 57.99239242 87.28080415 56.87809753 88.39396667 C53.85534097 91.41614914 50.83879294 94.44446086 47.82331181 97.47390032 C44.67051264 100.63919721 41.51205341 103.79883582 38.35418701 106.95907593 C32.37563006 112.94385045 26.40218989 118.93370523 20.4305656 124.92539632 C13.63164611 131.74666614 6.82705055 138.56226163 0.02196932 145.37738347 C-13.97605937 159.39632045 -27.96693506 173.42237755 -41.953125 187.453125 C-40.38713376 186.9946543 -38.82204395 186.53310413 -37.25732422 186.0703125 C-35.94983719 185.68528564 -35.94983719 185.68528564 -34.61593628 185.29248047 C-3.07361394 175.349898 26.3295835 155.50393632 50.2890625 133.0234375 C52.8107869 130.67316178 55.38141059 128.39996374 57.984375 126.140625 C61.39282403 123.13970792 64.20439657 119.98468911 67.046875 116.453125 C70.25528535 114.84891982 73.5662737 114.97849755 77.046875 115.453125 C79.546875 116.953125 79.546875 116.953125 81.046875 119.453125 C81.7755443 123.4276848 82.04499854 125.8093621 79.9296875 129.29296875 C78.07595779 131.47409849 76.09319681 133.45048494 74.046875 135.453125 C73.05380294 136.47705044 72.06308132 137.50325865 71.07421875 138.53125 C64.44765206 145.36285531 57.57489654 151.61408265 50.046875 157.453125 C48.78103561 158.45936578 47.51542635 159.46589609 46.25 160.47265625 C1.43922463 195.79178148 -56.60086763 219.36826969 -114.1484375 219.65625 C-115.56187187 219.66677147 -115.56187187 219.66677147 -117.00386047 219.67750549 C-120.02866448 219.69491509 -123.05327273 219.70135788 -126.078125 219.703125 C-127.1112381 219.70379974 -128.1443512 219.70447449 -129.20877075 219.70516968 C-144.34963326 219.68943945 -159.03924989 219.2854578 -173.953125 216.453125 C-174.97986328 216.27088379 -176.00660156 216.08864258 -177.06445312 215.90087891 C-180.26361061 215.32520369 -183.45247455 214.7117621 -186.640625 214.078125 C-188.08683228 213.80125854 -188.08683228 213.80125854 -189.56225586 213.51879883 C-195.048517 212.32840694 -198.44159959 211.13999569 -201.953125 206.453125 C-202.66548186 202.6538884 -202.26576488 201.01587679 -200.390625 197.640625 C-196.80973026 194.42700152 -193.35731829 194.54496815 -188.69318962 194.36679268 C-184.34944476 192.91838185 -181.72879626 189.79249785 -178.54959106 186.58444214 C-177.8136575 185.8575708 -177.07772394 185.13069947 -176.31948936 184.38180172 C-173.84936119 181.93704915 -171.39380815 179.47816221 -168.93798828 177.01904297 C-167.17290362 175.26592316 -165.40699913 173.51362843 -163.64033508 171.76210022 C-159.33855981 167.49203542 -155.04647257 163.21245672 -150.75941606 158.92763071 C-147.27552658 155.44564174 -143.78849638 151.96682981 -140.29922104 148.49023819 C-130.40910492 138.63534357 -120.52741491 128.77210981 -110.65639354 118.8980888 C-109.85823167 118.09968719 -109.85823167 118.09968719 -109.04394531 117.28515625 C-108.51119047 116.75223788 -107.97843562 116.21931951 -107.42953669 115.6702521 C-98.78998001 107.02906872 -90.13063374 98.40802321 -81.46212663 89.79589103 C-72.56382993 80.95500925 -63.68049159 72.09933911 -54.8125838 63.2279731 C-49.8326439 58.24670411 -44.84670187 53.27180258 -39.84463882 48.31274033 C-35.14271016 43.65097438 -30.46170455 38.96892673 -25.7944088 34.27244377 C-24.07554817 32.54938572 -22.34979081 30.83317695 -20.61682701 29.12430382 C-18.25723987 26.79541499 -15.92348742 24.44339368 -13.59475708 22.08370972 C-12.89877509 21.40830198 -12.2027931 20.73289425 -11.48572075 20.03701961 C-9.73407599 18.23327419 -8.22941377 16.61957891 -6.953125 14.453125 C-6.98441097 10.71526106 -6.98441097 10.71526106 -7.953125 7.453125 C-6.08813282 3.45671319 -4.52048846 0.69361992 0 0 Z M6.06773949 26.18057823 C5.45416316 26.78893906 4.84058684 27.39729989 4.2084173 28.02409589 C3.53332703 28.70364761 2.85823676 29.38319932 2.16268921 30.08334351 C1.4463587 30.79655404 0.73002818 31.50976457 -0.00800931 32.24458754 C-2.42502093 34.65357425 -4.83476497 37.06970435 -7.24462891 39.48583984 C-8.96862421 41.20712728 -10.69304517 42.92798847 -12.41786194 44.64845276 C-16.62592253 48.84831459 -20.82924124 53.05286894 -25.03030731 57.25972341 C-28.44335433 60.67727908 -31.85833856 64.09288752 -35.27473068 67.50709915 C-36.00285654 68.23476531 -36.00285654 68.23476531 -36.74569201 68.97713179 C-37.73167946 69.96247982 -38.7176714 70.94782334 -39.7036678 71.93316241 C-48.95876211 81.18254756 -58.20770549 90.43806384 -67.45457511 99.69567044 C-75.39658805 107.64661942 -83.34383034 115.59230983 -91.29492188 123.53417969 C-100.51840012 132.74696561 -109.73863885 141.96297368 -118.95369852 151.18418086 C-119.93551175 152.16663122 -120.91732918 153.14907739 -121.89915085 154.13151932 C-122.38228017 154.61495719 -122.86540949 155.09839506 -123.3631791 155.59648257 C-126.7752638 159.01029733 -130.1896705 162.42177914 -133.60496902 165.83237839 C-138.19786227 170.41909115 -142.78545573 175.01105686 -147.36945915 179.60665703 C-149.05767163 181.29752534 -150.7476093 182.98667308 -152.43934441 184.67401695 C-154.73850078 186.96775276 -157.03147824 189.26748696 -159.32290649 191.56893921 C-160.00245821 192.24402948 -160.68200992 192.91911975 -161.38215411 193.6146673 C-161.99051494 194.22824362 -162.59887576 194.84181994 -163.22567177 195.47398949 C-163.75619609 196.00483851 -164.2867204 196.53568753 -164.83332121 197.08262289 C-166.16403317 198.4162819 -166.16403317 198.4162819 -165.953125 200.453125 C-163.53752831 200.79645854 -161.12116193 201.12778912 -158.703125 201.453125 C-158.04054688 201.54851562 -157.37796875 201.64390625 -156.6953125 201.7421875 C-155.29700599 201.92686949 -153.89349842 202.07526252 -152.48771286 202.18987274 C-149.953125 202.453125 -149.953125 202.453125 -147.45872879 203.03479767 C-143.24863092 203.65202454 -139.80735272 203.62220533 -136.10558224 201.28825951 C-130.72128817 197.04411924 -126.02931934 192.03051293 -121.26074219 187.12304688 C-119.61625188 185.47516988 -117.96911104 183.82993435 -116.3195343 182.18714905 C-111.85716976 177.72822399 -107.43274128 173.23330361 -103.01423931 168.73096657 C-98.85634455 164.50560624 -94.67076343 160.30800544 -90.48518708 156.11009187 C-82.19903412 147.79771383 -73.94000018 139.45892682 -65.69775391 131.10302734 C-57.69397711 122.98900159 -49.67761808 114.88775133 -41.64404297 106.80322266 C-41.14836739 106.30439439 -40.65269181 105.80556613 -40.14199576 105.29162186 C-37.65511083 102.78907581 -35.16797683 100.28677748 -32.6807189 97.78460217 C-12.06611641 77.04571918 8.50420145 56.26325377 29.046875 35.453125 C26.69484441 33.06079382 24.58711515 30.97380943 21.6640625 29.3125 C21.05433594 28.96445313 20.44460938 28.61640625 19.81640625 28.2578125 C19.19121094 27.90976563 18.56601562 27.56171875 17.921875 27.203125 C16.97248047 26.65785156 16.97248047 26.65785156 16.00390625 26.1015625 C10.64310852 22.93535416 10.64310852 22.93535416 6.06773949 26.18057823 Z M38.70570648 49.53146881 C37.8039631 50.44092753 37.8039631 50.44092753 36.88400269 51.36875916 C36.24525967 52.00508776 35.60651665 52.64141636 34.94841778 53.29702765 C32.79398383 55.4457936 30.64681586 57.6016791 28.49951172 59.75756836 C26.96271295 61.29329502 25.42548152 62.82858884 23.8878479 64.36347961 C19.70168141 68.54478341 15.52181658 72.73233584 11.34314871 76.92113185 C6.97952517 81.29351185 2.61065782 85.66064627 -1.75753784 90.02845764 C-9.09323738 97.36509486 -16.42504631 104.70560204 -23.75439453 112.04858398 C-32.24210883 120.55202783 -40.73504007 129.05022759 -49.23098958 137.54544348 C-57.38663425 145.70047889 -65.53942263 153.85836318 -73.69060898 162.01785469 C-77.16751525 165.49830196 -80.64527901 168.97788913 -84.12369156 172.45683098 C-88.21518812 176.5493283 -92.30413817 180.64435297 -96.39108658 184.74139214 C-97.89634481 186.24958397 -99.40246342 187.75691763 -100.90947723 189.26335526 C-102.95671343 191.31010468 -105.00087251 193.35987662 -107.04421997 195.4105072 C-107.64984367 196.01458229 -108.25546736 196.61865739 -108.87944329 197.24103779 C-111.66150868 199.48376569 -111.66150868 199.48376569 -112.953125 202.453125 C-106.06750297 202.60897241 -99.51764296 202.03843647 -92.703125 201.078125 C-91.73632812 200.95179688 -90.76953125 200.82546875 -89.7734375 200.6953125 C-88.83757812 200.56640625 -87.90171875 200.4375 -86.9375 200.3046875 C-85.68018066 200.13187256 -85.68018066 200.13187256 -84.39746094 199.95556641 C-78.59603536 198.76306402 -75.20346619 196.13265807 -71.11283875 191.97360229 C-70.26113522 191.12574368 -70.26113522 191.12574368 -69.39222556 190.26075661 C-67.49345976 188.36692803 -65.60560801 186.46258441 -63.7175293 184.55810547 C-62.35784761 183.1975775 -60.99750485 181.83770991 -59.6365509 180.47845459 C-55.94426649 176.7870315 -52.26130987 173.08642661 -48.57994056 169.38412237 C-44.73092327 165.51636134 -40.87341831 161.6570847 -37.01679993 157.79690552 C-29.71524989 150.48602827 -22.42138139 143.16753674 -15.13023168 135.8462888 C-6.829058 127.51159223 1.48062781 119.18540458 9.79104483 110.85992599 C26.88581984 93.73378663 43.96986028 76.59697245 61.046875 59.453125 C57.61356764 55.98590665 54.1291028 52.74177897 50.359375 49.640625 C49.40675781 48.85042969 48.45414063 48.06023437 47.47265625 47.24609375 C43.18057646 44.07368695 42.14975066 46.11635903 38.70570648 49.53146881 Z " fill="#464747" transform="translate(382.953125,164.546875)"/>
<path d="M0 0 C2.5 1.5 2.5 1.5 4 4 C4.60828565 7.31792171 4.85392963 8.8650776 4 12 C2.65735503 13.90487126 2.65735503 13.90487126 0.91168672 15.80310446 C0.27479961 16.49920826 -0.36208749 17.19531207 -1.01827421 17.91250993 C-4.06210147 21.1187856 -7.14264704 24.27993707 -10.2744875 27.40032864 C-10.9758868 28.10318138 -11.6772861 28.80603412 -12.39993992 29.53018543 C-14.74142722 31.8753105 -17.08644383 34.21687327 -19.43147278 36.55845642 C-21.13159335 38.25972967 -22.83149594 39.96122078 -24.53119963 41.66291052 C-28.22224726 45.3572604 -31.91483992 49.05005859 -35.60881615 52.74147987 C-41.1016492 58.23052413 -46.59161314 63.72243134 -52.08102486 69.21489689 C-61.88457346 79.02370648 -71.69097572 88.82965914 -81.49860012 98.63439324 C-90.07768479 107.21096203 -98.65583903 115.78846006 -107.23306847 124.36688423 C-107.80208557 124.93597772 -108.37110267 125.5050712 -108.95736271 126.09140994 C-111.26714065 128.40149922 -113.57691506 130.71159203 -115.88668365 133.02169065 C-137.54585205 154.68391695 -159.20793389 176.34322773 -180.87132295 198.00123305 C-200.12850004 217.25366081 -219.38308495 236.50867742 -238.63549805 255.76586914 C-260.2630454 277.3987667 -281.89220166 299.03005353 -303.52397078 320.65872961 C-305.82798716 322.96242526 -308.1319996 325.26612486 -310.43601036 327.56982613 C-311.00332486 328.13706155 -311.57063936 328.70429697 -312.15514521 329.28872134 C-320.73344386 337.86588107 -329.31050521 346.44427677 -337.88697243 355.02326775 C-347.63113361 364.77028199 -357.37706722 374.51552003 -367.12537382 384.25838839 C-372.58549652 389.71556582 -378.04422737 395.17412694 -383.50099674 400.63465749 C-387.56553947 404.7016936 -391.63266786 408.76613551 -395.70084735 412.82953352 C-397.35362368 414.48118546 -399.00554242 416.13369607 -400.65655205 417.78711402 C-402.88699241 420.02056018 -405.120437 422.25095649 -407.35471821 424.48055935 C-408.00684922 425.13503153 -408.65898024 425.78950371 -409.3308728 426.46380839 C-414.79281533 431.9026464 -414.79281533 431.9026464 -419.875 432.3125 C-422.82968653 432.25340627 -423.89058393 432.06564964 -426.5 430.5 C-428.19111218 427.68147969 -428.74719981 425.42540813 -428.57973833 422.12831903 C-427.86169646 419.49226394 -426.75644736 418.20288138 -424.91168672 416.19689554 C-424.27479961 415.50079174 -423.63791251 414.80468793 -422.98172579 414.08749007 C-419.93789853 410.8812144 -416.85735296 407.72006293 -413.7255125 404.59967136 C-413.0241132 403.89681862 -412.3227139 403.19396588 -411.60006008 402.46981457 C-409.25857278 400.1246895 -406.91355617 397.78312673 -404.56852722 395.44154358 C-402.86840665 393.74027033 -401.16850406 392.03877922 -399.46880037 390.33708948 C-395.77775274 386.6427396 -392.08516008 382.94994141 -388.39118385 379.25852013 C-382.8983508 373.76947587 -377.40838686 368.27756866 -371.91897514 362.78510311 C-362.11542654 352.97629352 -352.30902428 343.17034086 -342.50139988 333.36560676 C-333.92231521 324.78903797 -325.34416097 316.21153994 -316.76693153 307.63311577 C-316.19791443 307.06402228 -315.62889733 306.4949288 -315.04263729 305.90859006 C-312.73285935 303.59850078 -310.42308494 301.28840797 -308.11331635 298.97830935 C-286.45414795 277.31608305 -264.79206611 255.65677227 -243.12867705 233.99876695 C-223.87149996 214.74633919 -204.61691505 195.49132258 -185.36450195 176.23413086 C-163.7369546 154.6012333 -142.10779834 132.96994647 -120.47602922 111.34127039 C-118.17201284 109.03757474 -115.8680004 106.73387514 -113.56398964 104.43017387 C-112.71301789 103.57932074 -112.71301789 103.57932074 -111.84485479 102.71127866 C-103.26655614 94.13411893 -94.68949479 85.55572323 -86.11302757 76.97673225 C-76.36886639 67.22971801 -66.62293278 57.48447997 -56.87462618 47.74161161 C-51.41450348 42.28443418 -45.95577263 36.82587306 -40.49900326 31.36534251 C-36.43446053 27.2983064 -32.36733214 23.23386449 -28.29915265 19.17046648 C-26.64637632 17.51881454 -24.99445758 15.86630393 -23.34344795 14.21288598 C-21.11300759 11.97943982 -18.879563 9.74904351 -16.64528179 7.51944065 C-15.66708527 6.53773238 -15.66708527 6.53773238 -14.6691272 5.53619161 C-9.84007101 0.72756277 -6.92507273 -0.9443281 0 0 Z " fill="#464747" transform="translate(468,40)"/>
<path d="M0 0 C1.47447853 -0.01038551 1.47447853 -0.01038551 2.97874451 -0.02098083 C6.12909999 -0.03815021 9.27928746 -0.04456627 12.4296875 -0.046875 C14.04023514 -0.04888412 14.04023514 -0.04888412 15.68331909 -0.05093384 C31.44745529 -0.04666167 46.7450825 0.47995356 62.3046875 3.203125 C63.84994087 3.43572663 65.39550372 3.66628388 66.94140625 3.89453125 C73.61101784 4.98212532 77.78469167 5.75278394 82.3046875 11.203125 C83.01704436 15.0023616 82.61732738 16.64037321 80.7421875 20.015625 C77.69714704 22.74835362 75.26922186 23.14063829 71.3046875 23.203125 C67.58117182 22.79098156 63.92274811 22.08134917 60.2421875 21.390625 C-11.82104084 9.00191465 -87.83808549 25.59392292 -147.95849609 67.36230469 C-158.56698602 74.86505622 -168.56172524 82.83798571 -178.03515625 91.73046875 C-180.18883244 93.73234397 -182.37512233 95.63500209 -184.6328125 97.515625 C-189.7105657 101.89998753 -194.12802827 106.95152946 -198.64453125 111.8984375 C-199.66139766 113.00005601 -200.67832157 114.10162144 -201.6953125 115.203125 C-202.56671875 116.15832031 -203.438125 117.11351562 -204.3359375 118.09765625 C-206.75568817 120.25700329 -207.5892987 120.87271195 -210.7578125 120.765625 C-214.6953125 120.203125 -214.6953125 120.203125 -217.1953125 118.703125 C-218.85095933 115.94371362 -219.56665547 113.75967159 -219.39624023 110.51879883 C-216.62373057 101.35918399 -205.95566954 93.15493477 -199.3203125 86.578125 C-198.45148438 85.7015625 -197.58265625 84.825 -196.6875 83.921875 C-190.66904661 77.92122769 -184.3522103 72.48071253 -177.6953125 67.203125 C-176.49155494 66.22603921 -175.28833004 65.24829633 -174.0859375 64.26953125 C-156.7535377 50.37291553 -137.77374362 38.69716963 -117.71240234 29.16210938 C-116.38146598 28.52934273 -115.05356758 27.89014088 -113.72900391 27.24414062 C-78.98942696 10.37478683 -38.66370172 0.18554828 0 0 Z " fill="#454646" transform="translate(242.6953125,135.796875)"/>
<path d="M0 0 C1.12535156 -0.020625 2.25070312 -0.04125 3.41015625 -0.0625 C10.57352654 -0.09562541 17.77649667 0.17696208 24.375 3.25 C26.66430893 5.73256639 27.32866121 7.01830603 28 10.375 C27.2118242 15.26168996 25.13613415 17.91203461 22.19140625 21.80859375 C20.61632762 23.92563492 19.31331757 25.99634732 18.0625 28.3125 C16.375 31.25 16.375 31.25 14.375 32.25 C7.44024634 32.80925433 7.44024634 32.80925433 3.875 30.9375 C1.45743869 26.60603598 2.07396485 22.10001072 2.375 17.25 C-14.69976404 18.38440586 -28.18827477 21.93017178 -41.625 33.25 C-42.26824219 33.78109375 -42.91148437 34.3121875 -43.57421875 34.859375 C-53.74481845 44.09290821 -60.68689836 58.29634145 -61.85888672 71.98095703 C-62.30465766 81.3960835 -62.13742095 90.1461688 -59.625 99.25 C-59.07518164 103.1626609 -59.03041927 106.25903212 -61.125 109.75 C-64.56170847 111.81202508 -67.70736526 112.09933097 -71.625 111.25 C-74.47160152 109.70018362 -75.48990891 108.53394146 -76.890625 105.58984375 C-83.31032415 83.40112168 -80.83229017 60.31388628 -69.8828125 40.109375 C-58.88143364 20.80161823 -41.69405433 7.97442636 -20.4296875 1.94140625 C-13.53182687 0.24095871 -7.09139517 0.03183567 0 0 Z " fill="#454646" transform="translate(255.625,175.75)"/>
<path d="M0 0 C3.85638538 2.31700521 6.58607545 5.50116785 9.4375 8.9375 C12.02667779 12.03188322 14.73889112 14.50740759 17.8046875 17.109375 C19.25497305 18.35837536 20.67809358 19.63971092 22.0703125 20.953125 C34.45460457 32.60385273 48.62415731 42.12061801 63.23364258 50.73730469 C64.07435303 51.23907227 64.91506348 51.74083984 65.78125 52.2578125 C66.8959668 52.90967529 66.8959668 52.90967529 68.03320312 53.57470703 C70.24512834 55.17763894 71.56689848 56.67813189 73 59 C73.49533509 62.96268075 73.65651481 65.07601619 71.3125 68.375 C68.63644946 70.25546795 67.27749873 70.9237791 64 71 C59.03344262 69.08793554 54.48766522 66.69803502 49.9375 63.9375 C49.29337158 63.54828369 48.64924316 63.15906738 47.9855957 62.75805664 C37.43518725 56.29034864 27.50899369 48.9122811 18 41 C17.49033691 40.58057129 16.98067383 40.16114258 16.45556641 39.72900391 C9.21530385 33.75349067 2.33085446 27.5103802 -4.3125 20.875 C-4.96500732 20.22329834 -5.61751465 19.57159668 -6.28979492 18.90014648 C-11.9015508 13.22077003 -11.9015508 13.22077003 -12.3125 8.125 C-12.25340627 5.17031347 -12.06564964 4.10941607 -10.5 1.5 C-6.97352275 -0.61588635 -3.92983653 -0.97142027 0 0 Z " fill="#454646" transform="translate(60,280)"/>
<path d="M0 0 C2.5 1.5 2.5 1.5 4 4 C4.73048775 7.98447866 5.01982781 10.37173255 2.84765625 13.83984375 C0.98670928 15.99199024 -0.98966781 17.98627198 -3 20 C-4.41967241 21.52011111 -5.82401548 23.0535549 -7.22802734 24.58813477 C-8.76218299 26.2633028 -10.3058394 27.92925538 -11.8515625 29.59375 C-13.96427523 31.87322129 -16.06226389 34.16496803 -18.1484375 36.46875 C-18.64891602 37.02014648 -19.14939453 37.57154297 -19.66503906 38.13964844 C-20.61987916 39.19284665 -21.57245152 40.24810641 -22.52246094 41.30566406 C-25.76010087 44.86974775 -26.96934509 45.9002592 -31.875 46.375 C-35.19281523 46.32070848 -35.80998641 46.15676121 -38.5 43.9375 C-40.45671167 40.10560632 -40.79424979 38.26006707 -40 34 C-38.68286133 32.1887207 -38.68286133 32.1887207 -36.95703125 30.30078125 C-36.3225708 29.60186768 -35.68811035 28.9029541 -35.03442383 28.18286133 C-34.36306396 27.46251709 -33.6917041 26.74217285 -33 26 C-32.35248779 25.30350342 -31.70497559 24.60700684 -31.0378418 23.8894043 C-28.35972167 21.03122023 -25.65986113 18.19399188 -22.9609375 15.35546875 C-19.00532005 11.17839781 -15.16461687 6.93847224 -11.4453125 2.54882812 C-8.30754617 -0.81367012 -4.31452771 -0.58834469 0 0 Z " fill="#454646" transform="translate(500,153)"/>
<path d="M0 0 C3.38548857 1.9817494 5.60862903 4.67630004 8.140625 7.61328125 C12.71040933 12.85546054 17.50715111 17.8735049 22.30273438 22.90820312 C31.85543999 32.98807994 31.85543999 32.98807994 32.5 37.5 C31.9034571 41.67580027 31.26104325 43.30963932 28 46 C24.02647229 46.71653778 21.67087481 46.98181746 18.171875 44.92578125 C14.26344301 41.71276847 11.01861206 37.84890302 7.75 34.00390625 C6.07015423 32.08033286 4.32349781 30.28686504 2.5 28.5 C-0.63812182 25.41124189 -3.56913616 22.18983317 -6.421875 18.8359375 C-7.70598089 17.34205194 -9.06229199 15.91046976 -10.4375 14.5 C-12.79893062 10.72171101 -12.56153595 8.42209561 -12 4 C-9.18515425 -0.69140958 -5.076941 -0.97868742 0 0 Z " fill="#454646" transform="translate(20,153)"/>
<path d="M0 0 C4.27567161 0.76351279 5.97105669 2.27111201 8.5 5.625 C10.8313104 9.57438202 12.88518405 13.65016885 14.9375 17.75 C16.03928125 19.91982126 17.14213884 22.08909634 18.24609375 24.2578125 C18.78089355 25.32032227 19.31569336 26.38283203 19.86669922 27.47753906 C21.91594886 31.42655646 24.14096992 35.26386906 26.41821289 39.08544922 C27.7212047 42.14428939 27.80367199 44.32935681 27.5 47.625 C25.5260809 51.04139845 24.31461541 52.34768412 20.5625 53.625 C16.72093996 53.625 15.43732443 53.11042836 12.5 50.625 C7.84292814 44.24519438 4.46183427 36.94329159 0.875 29.9375 C-0.26157066 27.72451502 -1.3995409 25.51224817 -2.5390625 23.30078125 C-3.03615723 22.33052002 -3.53325195 21.36025879 -4.04541016 20.3605957 C-5.46905853 17.6044894 -5.46905853 17.6044894 -7.15380859 14.98901367 C-9.06461457 11.63349423 -9.04229201 9.42104408 -8.5 5.625 C-5.90783917 1.93313458 -4.45850936 0.79616239 0 0 Z " fill="#464747" transform="translate(124.5,87.375)"/>
<path d="M0 0 C0.66 -0.0103125 1.32 -0.020625 2 -0.03125 C5.13341854 0.8010643 6.07865886 1.84316082 8 4.5 C8.61584573 8.07768499 8.56010028 11.62720889 8.53125 15.25 C8.5350769 16.30026367 8.53890381 17.35052734 8.54284668 18.43261719 C8.54556696 20.65170247 8.53819777 22.87081974 8.52148438 25.08984375 C8.50007745 28.48770595 8.52128325 31.88345361 8.546875 35.28125 C8.54423175 37.43750467 8.53910682 39.59375802 8.53125 41.75 C8.53934692 42.76674805 8.54744385 43.78349609 8.55578613 44.83105469 C8.46226768 51.86077417 8.46226768 51.86077417 6.09179688 55.13867188 C3.83648136 56.60641689 2.66961743 57.04171277 0 57 C-0.99 57.01546875 -0.99 57.01546875 -2 57.03125 C-5.13341854 56.1989357 -6.07865886 55.15683918 -8 52.5 C-8.61584573 48.92231501 -8.56010028 45.37279111 -8.53125 41.75 C-8.5350769 40.69973633 -8.53890381 39.64947266 -8.54284668 38.56738281 C-8.54556696 36.34829753 -8.53819777 34.12918026 -8.52148438 31.91015625 C-8.50007745 28.51229405 -8.52128325 25.11654639 -8.546875 21.71875 C-8.54423175 19.56249533 -8.53910682 17.40624198 -8.53125 15.25 C-8.53934692 14.23325195 -8.54744385 13.21650391 -8.55578613 12.16894531 C-8.46226768 5.13922583 -8.46226768 5.13922583 -6.09179688 1.86132812 C-3.83648136 0.39358311 -2.66961743 -0.04171277 0 0 Z " fill="#464747" transform="translate(256,63.5)"/>
</svg>
