<?xml version="1.0" encoding="UTF-8"?>
<svg version="1.1" xmlns="http://www.w3.org/2000/svg" width="512" height="512">
<path d="M0 0 C7.44115628 5.29415599 12.78057204 11.9241711 16.3125 20.3125 C16.3125 20.9725 16.3125 21.6325 16.3125 22.3125 C17.0678302 22.30583817 17.8231604 22.29917633 18.60137939 22.29231262 C25.72272759 22.23217944 32.84395253 22.18651458 39.96548843 22.15706348 C43.62667937 22.14141329 47.28766036 22.12018728 50.94873047 22.08618164 C54.48247082 22.05356443 58.01600934 22.03564212 61.54988861 22.02786827 C63.55295982 22.01963469 65.55594993 21.99621893 67.55889893 21.97261047 C68.77986267 21.97238388 70.00082642 21.97215729 71.25878906 21.97192383 C72.33356506 21.96526199 73.40834106 21.95860016 74.51568604 21.95173645 C77.70072045 22.3625769 79.04527195 23.06940845 81.3125 25.3125 C82.31746852 28.32740557 82.41585303 30.35431692 82.375 33.5 C82.36597656 34.40105469 82.35695313 35.30210938 82.34765625 36.23046875 C82.33025391 37.26107422 82.33025391 37.26107422 82.3125 38.3125 C82.97791306 38.30583817 83.64332611 38.29917633 84.3289032 38.29231262 C91.25559659 38.22593321 98.1821996 38.18068837 105.10913086 38.14770508 C107.69412913 38.13262038 110.27910182 38.11214998 112.86401367 38.08618164 C116.5799796 38.04978558 120.29560707 38.03277015 124.01171875 38.01953125 C125.16709641 38.00404739 126.32247406 37.98856354 127.51286316 37.97261047 C128.59360611 37.97238388 129.67434906 37.97215729 130.7878418 37.97192383 C131.73604294 37.96526199 132.68424408 37.95860016 133.66117859 37.95173645 C136.89738123 38.3920844 138.71701598 39.34433222 141.3125 41.3125 C143.99638702 45.08079474 143.59113017 49.29861756 143.56646729 53.73228455 C143.56958727 54.58972041 143.57270725 55.44715628 143.57592177 56.33057505 C143.58391001 59.20865281 143.57757486 62.08652021 143.57128906 64.96459961 C143.57399858 67.02601749 143.57755928 69.08743441 143.58190918 71.14884949 C143.59104072 76.7520995 143.5874856 82.355276 143.58115101 87.95852733 C143.57609431 93.81785836 143.58078161 99.67718301 143.58392334 105.53651428 C143.58756423 115.37811414 143.58276095 125.21968399 143.57324219 135.0612793 C143.56236044 146.44361779 143.56588071 157.82588462 143.576895 169.20822138 C143.58596796 178.97475992 143.58725301 188.74127688 143.58201766 198.50781828 C143.57889763 204.34354646 143.57848949 210.17924094 143.58509064 216.01496696 C143.59086347 221.50195613 143.58686827 226.98885282 143.57530212 232.47583199 C143.57265508 234.4910428 143.57342137 236.50626138 143.57782745 238.52146912 C143.58328261 241.26966213 143.576449 244.0175578 143.56646729 246.76573181 C143.57092873 247.56553827 143.57539017 248.36534472 143.57998681 249.18938774 C143.55089315 253.31176971 143.34927448 256.6777742 141.3125 260.3125 C137.60236601 262.78592266 135.70189738 262.69753486 131.3125 262.3125 C128.1274643 260.55234869 127.47953028 259.81359084 126.3125 256.3125 C126.21875839 253.63981907 126.18217891 250.99361419 126.19224548 248.32099915 C126.19096385 247.0859632 126.19096385 247.0859632 126.18965632 245.82597703 C126.18800468 243.05754678 126.19351775 240.28917666 126.19897461 237.52075195 C126.19925658 235.54003908 126.19909856 233.5593261 126.1985321 231.57861328 C126.1982445 226.19258996 126.20413534 220.80658878 126.21110606 215.42057061 C126.21734567 209.79512662 126.21794388 204.16968215 126.21913147 198.54423523 C126.22224299 187.88766567 126.23045397 177.23110633 126.24048096 166.57454127 C126.25164765 154.44411136 126.25715395 142.31368097 126.26217639 130.18324721 C126.27263672 105.22632449 126.29097999 80.2694158 126.3125 55.3125 C111.7925 55.3125 97.2725 55.3125 82.3125 55.3125 C82.47048368 66.27713326 82.47048368 66.27713326 82.67285156 77.2409668 C82.68454187 78.62287151 82.69473289 80.00479007 82.703125 81.38671875 C82.72358887 82.09526001 82.74405273 82.80380127 82.76513672 83.53381348 C82.76747291 86.86697597 82.44198511 89.0819034 80.80128479 92.00378323 C77.39423086 95.16433073 74.457563 95.00714434 70.0378418 94.94068909 C69.19603457 94.94778347 68.35422735 94.95487786 67.48691082 94.96218723 C64.66138469 94.97981319 61.83722582 94.96163939 59.01171875 94.94360352 C56.98808159 94.94874058 54.96444889 94.95602024 52.94082642 94.96528625 C47.44080231 94.98383548 41.9412616 94.9708393 36.44125748 94.95119596 C30.69089422 94.9348373 24.94056225 94.94361847 19.19018555 94.94871521 C9.53263609 94.95323928 -0.12471988 94.93734684 -9.78222656 94.90942383 C-20.95449479 94.87737062 -32.126414 94.87738671 -43.29870701 94.8946386 C-54.03726652 94.9104913 -64.77569782 94.90377819 -75.51425171 94.88670158 C-80.08836267 94.87982121 -84.66237116 94.88087367 -89.23648071 94.88824654 C-94.62099099 94.89589632 -100.00510311 94.8838258 -105.38954544 94.85639763 C-107.36807701 94.849499 -109.34664567 94.84943157 -111.32517624 94.85661316 C-114.02151213 94.8652739 -116.71660969 94.84940959 -119.4128418 94.8271637 C-120.1999973 94.83540446 -120.98715281 94.84364523 -121.79816151 94.85213572 C-125.284285 94.79887222 -127.31774708 94.58036443 -130.17628479 92.50952053 C-132.42115155 89.24590967 -132.18429976 86.08039212 -132.078125 82.265625 C-132.07208252 81.23961182 -132.07208252 81.23961182 -132.06591797 80.19287109 C-132.04506309 77.64913937 -131.9892171 75.10579144 -131.9375 72.5625 C-131.855 66.87 -131.7725 61.1775 -131.6875 55.3125 C-146.5375 55.3125 -161.3875 55.3125 -176.6875 55.3125 C-176.6875 187.9725 -176.6875 320.6325 -176.6875 457.3125 C-128.8375 457.3125 -80.9875 457.3125 -31.6875 457.3125 C-27.6875 460.3125 -27.6875 460.3125 -26.9375 462.1796875 C-26.855 462.84226562 -26.7725 463.50484375 -26.6875 464.1875 C-26.584375 464.84492188 -26.48125 465.50234375 -26.375 466.1796875 C-26.85708107 469.46989079 -28.37353598 470.97696861 -30.6875 473.3125 C-33.63606262 473.93891239 -33.63606262 473.93891239 -37.13989258 473.94068909 C-37.78568929 473.94778347 -38.431486 473.95487786 -39.0968523 473.96218723 C-41.25918547 473.97977926 -43.41972374 473.96165962 -45.58203125 473.94360352 C-47.13276997 473.94874196 -48.68350285 473.95602268 -50.23422241 473.96528625 C-54.44508313 473.98381838 -58.65531159 473.97085064 -62.86614609 473.95119596 C-67.27120462 473.9348229 -71.67622269 473.94362047 -76.08129883 473.94871521 C-83.47910677 473.95323768 -90.876662 473.9373569 -98.27441406 473.90942383 C-106.8291998 473.87737114 -115.38352971 473.8773871 -123.93834782 473.8946386 C-132.16528608 473.91049831 -140.3920571 473.90377373 -148.61898804 473.88670158 C-152.12133227 473.87982609 -155.62354264 473.88086862 -159.12588501 473.88824654 C-163.24973084 473.89590359 -167.37305747 473.88380272 -171.49681473 473.85639763 C-173.01092614 473.84950653 -174.52508599 473.84942362 -176.03919601 473.85661316 C-178.10508062 473.8652929 -180.16935738 473.84938079 -182.23510742 473.8271637 C-183.39137131 473.82435678 -184.54763519 473.82154985 -185.73893738 473.81865788 C-189.45428374 473.18087192 -190.41090325 472.28799145 -192.6875 469.3125 C-193.18889666 466.08878422 -193.18889666 466.08878422 -193.19086456 462.17848206 C-193.19958521 461.09448578 -193.19958521 461.09448578 -193.20848203 459.9885906 C-193.22314256 457.55398903 -193.20916937 455.12038613 -193.19543457 452.68579102 C-193.20004111 450.92801935 -193.20639236 449.17025152 -193.21434355 447.4124918 C-193.23109396 442.57207699 -193.22276464 437.73197625 -193.21039867 432.89156008 C-193.20137381 427.67539588 -193.21530514 422.45928689 -193.22631836 417.24313354 C-193.24413563 407.02067556 -193.24024933 396.79833483 -193.2286678 386.57587218 C-193.21964635 378.27030837 -193.21840388 369.9647775 -193.22276306 361.65921021 C-193.22337599 360.47860317 -193.22398893 359.29799613 -193.22462043 358.08161312 C-193.22589929 355.68348017 -193.22719614 353.28534723 -193.2285108 350.8872143 C-193.23992599 328.38246931 -193.22678816 305.87778942 -193.20530933 283.3730551 C-193.18743751 264.04912652 -193.19054136 244.72529404 -193.20898438 225.40136719 C-193.2303745 202.97896586 -193.23882727 180.55662164 -193.22653532 158.13421154 C-193.22526108 155.74473763 -193.2240036 153.35526372 -193.22276306 150.96578979 C-193.22214596 149.79002162 -193.22152886 148.61425345 -193.22089306 147.40285593 C-193.21743458 139.10409749 -193.22327921 130.80537517 -193.23268127 122.50662231 C-193.243882 112.39774257 -193.24090183 102.28898711 -193.2195583 92.18012166 C-193.20902192 87.01914962 -193.20497001 81.85838505 -193.21815491 76.6974144 C-193.23003119 71.97740691 -193.22359538 67.25780016 -193.2022447 62.53782928 C-193.19775833 60.82591458 -193.20009019 59.11396636 -193.20974785 57.40207303 C-193.22183194 55.08306661 -193.20952015 52.76545053 -193.19086456 50.44651794 C-193.19021515 49.15611823 -193.18956574 47.86571852 -193.18889666 46.53621578 C-192.60120722 42.757683 -191.67063468 41.61606593 -188.6875 39.3125 C-186.11616541 38.02683271 -184.290329 38.19240222 -181.41162109 38.19897461 C-179.76013565 38.19908791 -179.76013565 38.19908791 -178.07528687 38.19920349 C-176.88255157 38.20436478 -175.68981628 38.20952606 -174.4609375 38.21484375 C-173.24298492 38.2162587 -172.02503235 38.21767365 -170.77017212 38.21913147 C-166.8675901 38.22474361 -162.96506477 38.23729821 -159.0625 38.25 C-156.42187583 38.25501343 -153.78125076 38.25957661 -151.140625 38.26367188 C-144.65623055 38.27471699 -138.17186932 38.29146698 -131.6875 38.3125 C-131.73390625 37.49265625 -131.7803125 36.6728125 -131.828125 35.828125 C-131.88226563 34.21164063 -131.88226563 34.21164063 -131.9375 32.5625 C-131.98390625 31.49515625 -132.0303125 30.4278125 -132.078125 29.328125 C-131.6875 26.3125 -131.6875 26.3125 -130.05596924 23.95025635 C-127.0165088 21.84852096 -125.22212399 21.82847867 -121.54199219 21.85839844 C-119.68051544 21.85885162 -119.68051544 21.85885162 -117.78143311 21.85931396 C-116.43240718 21.87973885 -115.08338783 21.90060281 -113.734375 21.921875 C-112.35004494 21.92933898 -110.96570428 21.93503117 -109.58135986 21.93902588 C-105.94460683 21.95427026 -102.30849675 21.99354048 -98.67199707 22.0378418 C-94.95850318 22.07882108 -91.24490501 22.09704249 -87.53125 22.1171875 C-80.24970746 22.16003699 -72.96869395 22.22827246 -65.6875 22.3125 C-65.47951782 21.15584839 -65.47951782 21.15584839 -65.26733398 19.97583008 C-63.47169945 11.72800815 -57.09545957 4.87605825 -50.45703125 0.0390625 C-34.58317475 -9.8569101 -15.87561231 -9.64356146 0 0 Z M-46.6875 19.3125 C-48.64552092 22.53152896 -50.20331836 25.8530472 -51.6875 29.3125 C-51.996875 30.02664062 -52.30625 30.74078125 -52.625 31.4765625 C-53.31452946 33.0876746 -54.00131333 34.69996134 -54.6875 36.3125 C-56.44283958 38.06783958 -58.92363828 37.48296549 -61.30883789 37.51782227 C-62.51000748 37.53776749 -63.71117706 37.55771271 -64.94874573 37.57826233 C-66.2560112 37.59497482 -67.56327667 37.61168732 -68.91015625 37.62890625 C-70.25394847 37.64946958 -71.59773412 37.67046588 -72.94151306 37.69187927 C-76.48424987 37.74716419 -80.02704567 37.79654498 -83.56988525 37.84472656 C-87.1827114 37.89489487 -90.79545261 37.95055148 -94.40820312 38.00585938 C-101.50123747 38.11404091 -108.59431695 38.2130134 -115.6875 38.3125 C-115.6875 51.5125 -115.6875 64.7125 -115.6875 78.3125 C-55.9575 78.3125 3.7725 78.3125 65.3125 78.3125 C65.3125 65.1125 65.3125 51.9125 65.3125 38.3125 C58.97611328 38.25642578 58.97611328 38.25642578 52.51171875 38.19921875 C49.14476106 38.16111601 45.77786878 38.12004322 42.4109726 38.0769577 C38.85611615 38.03228308 35.30137796 37.99285096 31.74633789 37.96606445 C27.66783459 37.93509374 23.58995455 37.88030395 19.51171875 37.82421875 C18.23664963 37.81782883 16.96158051 37.8114389 15.64787292 37.80485535 C14.46687515 37.78506119 13.28587738 37.76526703 12.0690918 37.74487305 C11.02762497 37.73376999 9.98615814 37.72266693 8.91313171 37.71122742 C6.3125 37.3125 6.3125 37.3125 4.52180481 35.96394348 C2.75131888 33.54614325 2.04787959 30.96693607 1.125 28.125 C-2.00187101 19.76806498 -6.33266943 14.55910085 -14.5 10.8125 C-26.36375988 6.73660704 -38.46626164 9.67309803 -46.6875 19.3125 Z " fill="#000000" transform="translate(322.6875,6.6875)"/>
<path d="M0 0 C1.16493484 -0.00960754 2.32986969 -0.01921509 3.53010559 -0.02911377 C5.42692329 -0.03548859 5.42692329 -0.03548859 7.36206055 -0.04199219 C8.65693893 -0.04769226 9.95181732 -0.05339233 11.28593445 -0.05926514 C14.03063347 -0.06977517 16.77530321 -0.07561746 19.52001953 -0.07910156 C23.03062088 -0.08457927 26.54083298 -0.10859118 30.05131245 -0.13707352 C33.40488764 -0.16022473 36.75840958 -0.16215153 40.11206055 -0.16699219 C41.37053299 -0.17933899 42.62900543 -0.19168579 43.9256134 -0.20440674 C45.10000473 -0.20140564 46.27439606 -0.19840454 47.484375 -0.1953125 C48.51536819 -0.19895813 49.54636139 -0.20260376 50.6085968 -0.20635986 C53.89513053 0.22076626 55.77634193 1.21494293 58.4362793 3.16113281 C59.7671704 5.82291502 59.54896923 7.84852677 59.53393555 10.82519531 C59.52910156 12.50742188 59.52910156 12.50742188 59.52416992 14.22363281 C59.51160156 15.98707031 59.51160156 15.98707031 59.4987793 17.78613281 C59.49426758 18.96949219 59.48975586 20.15285156 59.48510742 21.37207031 C59.47329396 24.30180788 59.45682187 27.23144553 59.4362793 30.16113281 C60.04681152 30.20866699 60.65734375 30.25620117 61.28637695 30.30517578 C62.09123535 30.37881348 62.89609375 30.45245117 63.7253418 30.52832031 C64.52149902 30.59647949 65.31765625 30.66463867 66.13793945 30.73486328 C69.96315309 31.44431973 71.86434194 33.34424904 74.4362793 36.16113281 C77.21183358 41.48755365 77.9072309 45.70147224 77.8112793 51.66113281 C77.82288086 52.38171875 77.83448242 53.10230469 77.84643555 53.84472656 C77.81439951 59.75003551 76.62728859 64.37660961 72.89331055 69.12207031 C72.07926758 69.82203125 72.07926758 69.82203125 71.2487793 70.53613281 C70.71897461 71.01824219 70.18916992 71.50035156 69.64331055 71.99707031 C66.3551484 73.73135761 63.12358513 73.75321921 59.4362793 74.16113281 C59.43996647 75.30027539 59.44365364 76.43941797 59.44745255 77.61308002 C59.53630345 105.34801121 59.60200736 133.0829239 59.64352798 160.81796741 C59.64763391 163.48956627 59.65177256 166.16116502 59.65600586 168.83276367 C59.6570551 169.49678535 59.65810434 170.16080703 59.65918538 170.84495058 C59.67548811 180.91514801 59.70355973 190.98526958 59.73803711 201.05541992 C59.77794192 212.74755072 59.80372096 224.43961336 59.81263328 236.13181037 C59.81784179 242.32109655 59.83005873 248.51018777 59.85919952 254.69941139 C59.88642596 260.52948875 59.89470957 266.35929152 59.88871002 272.18942642 C59.88980702 274.32468472 59.89771751 276.45995256 59.9131012 278.59515572 C60.00900574 292.59770103 59.8942102 305.54610853 49.4362793 316.16113281 C40.42310565 323.91121465 31.51082646 326.82895879 19.6784668 326.50878906 C8.6186902 325.32286121 -0.31055904 319.61137372 -7.24731445 311.08691406 C-12.62153544 303.22492312 -13.71596531 295.45368527 -13.68397522 286.16984558 C-13.68482964 285.26310839 -13.68568407 284.35637119 -13.68656439 283.42215711 C-13.68821163 280.38355014 -13.68271014 277.34499837 -13.67724609 274.30639648 C-13.67696403 272.12834677 -13.67712232 269.95029697 -13.6776886 267.77224731 C-13.67797584 261.85743447 -13.67209094 255.94264184 -13.66511464 250.0278337 C-13.65886891 243.84719555 -13.65827634 237.66655695 -13.65708923 231.48591614 C-13.65397953 219.78110098 -13.64577097 208.07629515 -13.63573974 196.3714841 C-13.62448724 183.04635077 -13.61906534 169.72121739 -13.61404431 156.39608037 C-13.60358808 128.98442601 -13.58599558 101.57277994 -13.5637207 74.16113281 C-14.65297852 74.0309375 -15.74223633 73.90074219 -16.86450195 73.76660156 C-22.1947663 72.89417181 -25.16376653 70.74468753 -28.70825195 66.73535156 C-31.66044498 62.14063766 -31.14378471 56.93868557 -31.0637207 51.66113281 C-31.07918945 50.64148438 -31.0946582 49.62183594 -31.1105957 48.57128906 C-31.07883321 42.46495006 -30.68402232 38.77053498 -26.5637207 34.16113281 C-24.9230957 32.70019531 -24.9230957 32.70019531 -23.3137207 31.78613281 C-22.79293945 31.46902344 -22.2721582 31.15191406 -21.7355957 30.82519531 C-18.34056994 29.78714787 -15.10306801 30.06567324 -11.5637207 30.16113281 C-11.58466797 29.42475586 -11.60561523 28.68837891 -11.62719727 27.9296875 C-11.71039214 24.59030839 -11.76239227 21.25114732 -11.8137207 17.91113281 C-11.86399414 16.17283203 -11.86399414 16.17283203 -11.9152832 14.39941406 C-11.92817383 13.284375 -11.94106445 12.16933594 -11.9543457 11.02050781 C-11.97529297 9.9940918 -11.99624023 8.96767578 -12.01782227 7.91015625 C-11.4464493 4.45119949 -10.25134612 3.33147467 -7.5637207 1.16113281 C-4.93122075 -0.15511717 -2.94810583 0.01956985 0 0 Z M4.4362793 17.16113281 C4.4362793 21.45113281 4.4362793 25.74113281 4.4362793 30.16113281 C17.3062793 30.16113281 30.1762793 30.16113281 43.4362793 30.16113281 C43.4362793 25.87113281 43.4362793 21.58113281 43.4362793 17.16113281 C30.5662793 17.16113281 17.6962793 17.16113281 4.4362793 17.16113281 Z M-14.5637207 46.16113281 C-14.5637207 49.79113281 -14.5637207 53.42113281 -14.5637207 57.16113281 C-13.1818457 57.55300781 -11.7999707 57.94488281 -10.3762207 58.34863281 C-5.36856036 60.01785293 -2.4701988 62.40327966 0.54862213 66.77021408 C1.91011773 70.4374242 1.71640765 74.1172247 1.70129395 77.97833252 C1.70567522 78.87857076 1.71005649 79.77880901 1.71457052 80.7063272 C1.7269133 83.72939857 1.72508084 86.75229693 1.72338867 89.77539062 C1.72941153 91.94031533 1.73633543 94.10523769 1.74409485 96.27015686 C1.75899791 100.93605487 1.76773664 105.60190998 1.77180481 110.2678299 C1.77851175 117.6466755 1.80025935 125.0254293 1.82434082 132.40423584 C1.87334699 148.07318 1.90563171 163.74214362 1.9362793 179.41113281 C1.96935834 196.31239325 2.00530747 213.21361786 2.06041002 230.1148231 C2.08374983 237.44853736 2.09749767 244.78218807 2.10390472 252.1159358 C2.1098478 256.68222508 2.12394855 261.24846295 2.14024925 265.81472588 C2.14612002 267.93026244 2.14859855 270.04581159 2.14740944 272.16135597 C2.14624759 275.05301253 2.15728863 277.94438117 2.17126465 280.83599854 C2.16796567 281.6698669 2.1646667 282.50373526 2.16126776 283.36287236 C2.22703728 291.62923283 3.55409708 299.01370631 9.4362793 305.16113281 C14.09929899 308.99853057 19.42694781 310.55262021 25.4362793 310.16113281 C31.74201658 308.71328981 36.19912231 306.14392423 40.2800293 301.13769531 C43.06296578 296.38037822 43.6815104 291.89132298 43.6315918 286.45019531 C43.62192383 284.58427734 43.62192383 284.58427734 43.61206055 282.68066406 C43.59530273 281.39546875 43.57854492 280.11027344 43.5612793 278.78613281 C43.55225586 277.47773438 43.54323242 276.16933594 43.53393555 274.82128906 C43.51043015 271.60104911 43.47757017 268.38118574 43.4362793 265.16113281 C42.69990234 265.15178711 41.96352539 265.14244141 41.20483398 265.1328125 C37.86463711 265.07909126 34.5258381 264.99544659 31.1862793 264.91113281 C30.02741211 264.89695312 28.86854492 264.88277344 27.67456055 264.86816406 C26.55952148 264.8359375 25.44448242 264.80371094 24.2956543 264.77050781 C23.26923828 264.74956055 22.24282227 264.72861328 21.18530273 264.70703125 C17.687168 264.01237501 16.65402611 262.91929247 14.4362793 260.16113281 C13.93570805 257.58459377 13.93570805 257.58459377 13.93507385 254.61314392 C13.92523972 253.4844841 13.91540558 252.35582428 13.90527344 251.19296265 C13.91494141 249.95905792 13.92460938 248.7251532 13.93457031 247.45385742 C13.92916733 246.15111374 13.92376434 244.84837006 13.91819763 243.50614929 C13.90423777 239.9358812 13.91541543 236.36609471 13.93190885 232.79585338 C13.94575863 229.06031461 13.93929947 225.32480383 13.93577576 221.58924866 C13.9330739 215.31715124 13.94654812 209.04524523 13.96972656 202.77319336 C13.99634787 195.51923825 13.99807971 188.26560293 13.9863382 181.01161569 C13.97556451 174.03516858 13.98174348 167.05883728 13.99589348 160.08239937 C14.00165571 157.11234364 14.0015688 154.14237259 13.99682808 151.1723156 C13.99117599 147.02770399 14.01036236 142.88357136 14.03222656 138.73901367 C14.02772491 137.50308472 14.02322327 136.26715576 14.01858521 134.99377441 C14.02848984 133.86793442 14.03839447 132.74209442 14.04859924 131.58213806 C14.05102914 130.60193664 14.05345903 129.62173521 14.05596256 128.61183071 C14.4362793 126.16113281 14.4362793 126.16113281 15.79005337 124.3493433 C18.27069866 122.55886686 20.3891087 122.72325892 23.41674805 122.64941406 C24.58012695 122.61396484 25.74350586 122.57851562 26.94213867 122.54199219 C28.15708008 122.51943359 29.37202148 122.496875 30.6237793 122.47363281 C31.85032227 122.43947266 33.07686523 122.4053125 34.34057617 122.37011719 C37.37215307 122.28754505 40.40420239 122.22266551 43.4362793 122.16113281 C43.4362793 116.22113281 43.4362793 110.28113281 43.4362793 104.16113281 C41.59420898 104.12375 39.75213867 104.08636719 37.85424805 104.04785156 C35.44407099 103.98220472 33.03391566 103.91575695 30.6237793 103.84863281 C29.40883789 103.82607422 28.19389648 103.80351562 26.94213867 103.78027344 C25.19707031 103.72709961 25.19707031 103.72709961 23.41674805 103.67285156 C22.34320068 103.64666748 21.26965332 103.6204834 20.16357422 103.59350586 C17.4362793 103.16113281 17.4362793 103.16113281 15.58740234 101.75024414 C14.14919657 99.76481861 14.03360382 98.59657476 14.0612793 96.16113281 C14.05354492 95.48050781 14.04581055 94.79988281 14.0378418 94.09863281 C14.57036316 91.50911715 15.33578908 90.76402902 17.4362793 89.16113281 C20.16357422 88.72875977 20.16357422 88.72875977 23.41674805 88.64941406 C24.58012695 88.61396484 25.74350586 88.57851562 26.94213867 88.54199219 C28.15708008 88.51943359 29.37202148 88.496875 30.6237793 88.47363281 C32.46359375 88.42239258 32.46359375 88.42239258 34.34057617 88.37011719 C37.37238608 88.28753871 40.40390309 88.21841912 43.4362793 88.16113281 C43.47366211 86.84757812 43.51104492 85.53402344 43.54956055 84.18066406 C43.61523587 82.44495917 43.68168267 80.70928334 43.7487793 78.97363281 C43.77133789 78.10931641 43.79389648 77.245 43.81713867 76.35449219 C44.02481113 71.42699102 44.46068603 68.26952566 47.4362793 64.16113281 C47.4362793 63.50113281 47.4362793 62.84113281 47.4362793 62.16113281 C51.62382737 59.95210516 55.93778666 58.61652749 60.4362793 57.16113281 C60.4362793 53.53113281 60.4362793 49.90113281 60.4362793 46.16113281 C35.6862793 46.16113281 10.9362793 46.16113281 -14.5637207 46.16113281 Z M29.4362793 138.16113281 C29.4362793 174.79113281 29.4362793 211.42113281 29.4362793 249.16113281 C34.0562793 249.16113281 38.6762793 249.16113281 43.4362793 249.16113281 C43.4362793 212.53113281 43.4362793 175.90113281 43.4362793 138.16113281 C38.8162793 138.16113281 34.1962793 138.16113281 29.4362793 138.16113281 Z " fill="#000000" transform="translate(37.563720703125,130.8388671875)"/>
<path d="M0 0 C2.87213588 2.28303982 5.63988151 4.66722033 8.36767578 7.12011719 C10.91328373 9.40661236 13.5149113 11.56127694 16.20751953 13.67089844 C17.28066406 12.51074219 17.28066406 12.51074219 18.37548828 11.32714844 C30.41781609 -1.39045009 45.59158731 -11.27223987 63.58837891 -12.49023438 C85.45965461 -12.86313876 103.86467549 -9.58672476 120.75439453 5.28027344 C134.85979697 19.02630257 143.08743203 35.73696292 143.55517578 55.45605469 C143.66632585 68.52412652 142.20446275 78.91403749 136.58251953 90.73339844 C136.28861328 91.35859375 135.99470703 91.98378906 135.69189453 92.62792969 C130.25892369 103.31718938 121.26722184 111.90560032 112.85424805 120.26708984 C111.85083138 121.27158294 110.84784865 122.27650967 109.84526062 123.28182983 C107.15606771 125.97581144 104.46076466 128.6635982 101.7640698 131.35006762 C98.93232003 134.17295457 96.10592329 137.00119253 93.27879333 139.82870483 C88.54237618 144.56419013 83.80212823 149.29581228 79.05932617 154.02490234 C73.57479743 159.49363335 68.09558642 164.9676469 62.61931664 170.44464743 C56.7760931 176.28854534 50.9290762 182.12863634 45.08091998 187.96759748 C43.39804575 189.64833985 41.71588388 191.32979239 40.03387642 193.01140213 C37.39895167 195.64532496 34.76150064 198.27669185 32.1220417 200.90607071 C30.68952138 202.33426444 29.25944837 203.76491155 27.82943726 205.19561768 C26.98145065 206.03933929 26.13346405 206.88306091 25.25978088 207.75234985 C24.52113076 208.48932413 23.78248064 209.22629841 23.02144718 209.98560524 C20.12285087 212.67864796 17.51289785 213.31799745 13.53132629 213.26926041 C10.39448304 212.46154793 8.87841931 210.93564366 6.52661133 208.72210693 C5.64943451 207.90133415 4.77225769 207.08056137 3.86849976 206.23491669 C-0.25302482 202.26357405 -4.34802399 198.27101545 -8.39794922 194.2265625 C-9.30018219 193.32929443 -10.20241516 192.43202637 -11.13198853 191.50756836 C-13.57661144 189.07589487 -16.0180448 186.64104546 -18.45843887 184.20512867 C-19.99084688 182.675678 -21.52382908 181.14680503 -23.05697632 179.6180954 C-27.87641164 174.81228465 -32.69387701 170.00451225 -37.50844669 165.19382691 C-43.02490188 159.68185001 -48.54783523 154.17647535 -54.07651424 148.67675996 C-58.37944389 144.39557608 -62.67646566 140.10851893 -66.96920109 135.81711364 C-69.52001297 133.26733995 -72.07309448 130.71995331 -74.63241577 128.17871857 C-94.98660738 107.96007078 -113.00494864 89.04565734 -113.29248047 58.67089844 C-113.08829313 38.85628897 -105.97600922 21.34938717 -92.22753906 7.07373047 C-68.28164014 -16.33442455 -27.18185856 -20.15500381 0 0 Z M-83.79248047 22.67089844 C-93.33470398 35.36939587 -98.05277935 48.73421582 -96.79248047 64.67089844 C-93.12734655 89.72708667 -73.42586965 105.18922061 -56.50352883 122.06124401 C-54.00867832 124.54976293 -51.51673647 127.04119139 -49.02445984 129.5322876 C-44.32359871 134.23006391 -39.62019882 138.92528958 -34.91583747 143.61956048 C-29.55212804 148.9720193 -24.19132194 154.32738206 -18.83073485 159.68296766 C-7.82116737 170.68213542 3.1919659 181.67772556 14.20751953 192.67089844 C17.53986138 191.21748422 19.74532858 189.39018768 22.31719971 186.83537292 C23.12731003 186.03523773 23.93742035 185.23510254 24.77207947 184.41072083 C26.09218773 183.09160957 26.09218773 183.09160957 27.43896484 181.74584961 C28.83971001 180.35758972 28.83971001 180.35758972 30.26875305 178.94128418 C32.82975739 176.40221685 35.38416694 173.85661471 37.93676472 171.30909896 C39.5358958 169.71361649 41.13631635 168.11943905 42.73717499 166.52569008 C48.33442264 160.95294722 53.92591521 155.37449567 59.51269531 149.79125977 C64.69833274 144.6092445 69.89690873 139.44046623 75.10168195 134.27767771 C79.58385643 129.83037968 84.05617899 125.37332762 88.52129626 120.90890485 C91.18163271 118.24935621 93.84567638 115.59381793 96.51993561 112.94826317 C99.04285246 110.45182116 101.55313283 107.94329052 104.05489159 105.42565155 C105.39521079 104.08269685 106.74774746 102.75196885 108.10084534 101.42189026 C120.00645763 89.3747591 127.08761766 75.85380348 127.70751953 58.67089844 C127.13140099 41.69460539 120.30864987 28.35881945 108.20751953 16.67089844 C96.47477867 6.46678879 81.49480342 2.68281789 66.20751953 3.67089844 C49.96714489 6.01243393 38.36389942 14.35978924 27.20751953 25.67089844 C26.07056641 26.80591797 26.07056641 26.80591797 24.91064453 27.96386719 C24.28673828 28.5890625 23.66283203 29.21425781 23.02001953 29.85839844 C20.18749357 32.6909244 19.36649254 33.45014167 15.58251953 34.17089844 C9.40388147 33.25554465 5.79035114 28.29119351 1.56689453 23.96777344 C-10.44071991 11.69183242 -23.60127885 3.717205 -41.35498047 3.42089844 C-57.91547938 3.6457941 -72.65693753 10.35906575 -83.79248047 22.67089844 Z " fill="#000000" transform="translate(361.79248046875,299.3291015625)"/>
<path d="M0 0 C3.56737954 0.82814168 4.35260901 1.0622789 6.5 3.8125 C10.2610495 14.06803934 11.53050916 25.72447531 13.625 36.4375 C14.33263345 40.05534715 15.04407604 43.67241506 15.7578125 47.2890625 C15.91823029 48.11604645 16.07864807 48.9430304 16.243927 49.79507446 C17.00532829 53.92012337 17.00532829 53.92012337 18.5 57.8125 C18.88671875 56.98105469 19.2734375 56.14960938 19.671875 55.29296875 C20.19265625 54.20628906 20.7134375 53.11960937 21.25 52 C21.76046875 50.92105469 22.2709375 49.84210938 22.796875 48.73046875 C24.57770995 45.67935933 25.46396292 44.52659333 28.5 42.8125 C31.14501888 42.53207357 33.54668234 42.41498829 36.1875 42.44921875 C36.92701904 42.44872025 37.66653809 42.44822174 38.4284668 42.44770813 C39.98847141 42.45004353 41.54848016 42.45974061 43.10839844 42.47631836 C45.49188037 42.4999196 47.87424329 42.49687453 50.2578125 42.49023438 C51.77604831 42.49581141 53.29427943 42.50292146 54.8125 42.51171875 C55.52301514 42.51080734 56.23353027 42.50989594 56.96557617 42.50895691 C60.62231681 42.56117636 63.42935888 42.72905128 66.5 44.8125 C68.59679403 47.50837803 68.49510821 48.905444 68.3125 52.375 C67.23913043 56.91617893 67.23913043 56.91617893 64.5 58.8125 C61.38856433 59.84964522 59.00531904 60.01281861 55.73828125 60.12890625 C54.62001953 60.17080078 53.50175781 60.21269531 52.34960938 60.25585938 C51.18236328 60.29517578 50.01511719 60.33449219 48.8125 60.375 C47.63365234 60.41818359 46.45480469 60.46136719 45.24023438 60.50585938 C42.32694117 60.61201176 39.41356243 60.71406242 36.5 60.8125 C35.92499756 62.1442627 35.92499756 62.1442627 35.33837891 63.50292969 C33.91195669 66.805836 32.48403411 70.10809188 31.05566406 73.41015625 C30.43839417 74.83771432 29.82152793 76.26544699 29.20507812 77.69335938 C28.31747534 79.74916196 27.42840913 81.80432631 26.5390625 83.859375 C26.12800766 84.81272736 26.12800766 84.81272736 25.70864868 85.78533936 C24.98094931 87.46477563 24.24102068 89.13889881 23.5 90.8125 C23.16919434 91.5746582 22.83838867 92.33681641 22.49755859 93.12207031 C21.5 94.8125 21.5 94.8125 18.5 96.8125 C14.52077392 97.15115754 11.88469881 96.94801143 8.5 94.8125 C4.72018976 86.20616283 3.58115202 76.50916334 1.875 67.3125 C1.40891319 64.8148513 0.94100447 62.31759366 0.46841431 59.82116699 C0.17615357 58.27609966 -0.11223922 56.73029467 -0.39639282 55.18371582 C-0.80540717 51.70427647 -0.80540717 51.70427647 -2.5 48.8125 C-2.69110352 49.60946289 -2.88220703 50.40642578 -3.07910156 51.22753906 C-3.95475976 54.84292208 -4.85210096 58.45257936 -5.75 62.0625 C-6.05035156 63.31675781 -6.35070312 64.57101562 -6.66015625 65.86328125 C-6.96308594 67.06855469 -7.26601563 68.27382813 -7.578125 69.515625 C-7.85043945 70.62583008 -8.12275391 71.73603516 -8.40332031 72.87988281 C-9.61318126 76.11515657 -10.82870825 77.65700903 -13.5 79.8125 C-16.94097112 80.91068227 -18.67386656 81.17465834 -22.00390625 79.71484375 C-25.1934432 77.2840073 -26.03085642 75.15209599 -27.5 71.4375 C-27.74637207 70.82696777 -27.99274414 70.21643555 -28.24658203 69.58740234 C-29.01528969 67.66883819 -29.7594227 65.74207756 -30.5 63.8125 C-30.99693309 62.54148565 -31.49431955 61.27064845 -31.9921875 60 C-33.17854882 56.9436115 -34.34771341 53.88186517 -35.5 50.8125 C-36.16 50.8125 -36.82 50.8125 -37.5 50.8125 C-39.06958193 52.48971041 -40.4480525 54.28044114 -41.8671875 56.0859375 C-44.33735702 58.69793494 -46.49150303 59.70505052 -50.07788086 60.0871582 C-53.19815774 60.11539242 -56.31707701 60.13423749 -59.4375 60.125 C-61.06461914 60.14916992 -61.06461914 60.14916992 -62.72460938 60.17382812 C-64.29758789 60.17479492 -64.29758789 60.17479492 -65.90234375 60.17578125 C-66.85616943 60.17876221 -67.80999512 60.18174316 -68.79272461 60.18481445 C-72.00350153 59.74325662 -73.8893261 58.70302773 -76.5 56.8125 C-78.04586876 53.72076248 -77.79359521 51.21820448 -77.5 47.8125 C-75.63291495 45.44752561 -74.17938569 44.15219285 -71.5 42.8125 C-70.05151418 42.72907841 -68.59929131 42.70517139 -67.1484375 42.71484375 C-66.29765625 42.71806641 -65.446875 42.72128906 -64.5703125 42.72460938 C-63.68085938 42.73298828 -62.79140625 42.74136719 -61.875 42.75 C-60.9778125 42.75451172 -60.080625 42.75902344 -59.15625 42.76367188 C-56.93743352 42.77547409 -54.71874982 42.79193845 -52.5 42.8125 C-52.22148193 42.21775879 -51.94296387 41.62301758 -51.65600586 41.01025391 C-50.58538998 38.97484015 -49.48124175 37.39871991 -48.00390625 35.6484375 C-47.52759766 35.08382812 -47.05128906 34.51921875 -46.56054688 33.9375 C-46.06619141 33.36 -45.57183594 32.7825 -45.0625 32.1875 C-44.57201172 31.60226562 -44.08152344 31.01703125 -43.57617188 30.4140625 C-38.18413878 24.06878199 -38.18413878 24.06878199 -33.625 23.375 C-29.36088671 23.97197586 -28.26561715 25.55225458 -25.5 28.8125 C-24.16137284 31.33871752 -23.16125917 33.94009674 -22.1875 36.625 C-21.92388672 37.31787109 -21.66027344 38.01074219 -21.38867188 38.72460938 C-20.7470873 40.41605962 -20.12182938 42.11368778 -19.5 43.8125 C-19.21278076 42.71784424 -18.92556152 41.62318848 -18.62963867 40.49536133 C-17.55841936 36.42114937 -16.47691324 32.34972664 -15.39233398 28.27905273 C-14.92501863 26.51937652 -14.46046823 24.75896353 -13.9987793 22.99780273 C-13.33333356 20.46137286 -12.65787494 17.92778942 -11.98046875 15.39453125 C-11.67558784 14.21924614 -11.67558784 14.21924614 -11.36454773 13.0202179 C-7.73582428 -0.41441916 -7.73582428 -0.41441916 0 0 Z " fill="#000000" transform="translate(379.5,345.1875)"/>
<path d="M0 0 C1.24916199 -0.00571014 2.49832397 -0.01142029 3.78533936 -0.01730347 C5.17225637 -0.01854881 6.5591735 -0.01967391 7.9460907 -0.02069092 C9.404761 -0.02531957 10.8634301 -0.0303443 12.32209778 -0.03573608 C16.28707212 -0.04885774 20.25202952 -0.05530461 24.21702218 -0.05974674 C26.69438864 -0.06267791 29.17175048 -0.06678281 31.64911461 -0.07125092 C39.400799 -0.08492538 47.15247281 -0.09459222 54.90416843 -0.09845281 C63.85125506 -0.10293325 72.79818889 -0.12048066 81.74522907 -0.1494534 C88.66167746 -0.17107282 95.57808288 -0.18115723 102.49456471 -0.18249393 C106.6251422 -0.18354179 110.75557604 -0.18944558 114.88611794 -0.20731354 C118.77262629 -0.22379873 122.6588831 -0.22594765 126.54541397 -0.21717453 C127.97001634 -0.21640438 129.39463226 -0.22074397 130.81920052 -0.23063278 C132.76777215 -0.24336323 134.71644495 -0.23567978 136.66503906 -0.22705078 C137.75438909 -0.22851734 138.84373911 -0.2299839 139.96609974 -0.2314949 C143.53718547 0.20300418 145.95158663 1.29419134 149.022995 3.14044189 C150.55146161 6.19737512 150.25541945 8.77028737 150.022995 12.14044189 C148.26284369 15.32547759 147.52408583 15.97341162 144.022995 17.14044189 C142.00493119 17.23818997 139.98375551 17.27544119 137.96333313 17.28088379 C136.69589767 17.28659393 135.42846222 17.29230408 134.12261963 17.29818726 C132.71522532 17.2994326 131.3078309 17.3005577 129.9004364 17.30157471 C128.42043941 17.30620326 126.94044362 17.31122797 125.46044922 17.31661987 C121.43769262 17.32974136 117.41495271 17.33618821 113.39217806 17.34063053 C110.87930737 17.34356135 108.36644124 17.34766616 105.85357285 17.3521347 C97.99243364 17.3658083 90.13130487 17.37547592 82.2701546 17.3793366 C73.19344778 17.38381869 64.11689145 17.40137412 55.04023039 17.43033719 C48.02528468 17.45194513 41.01038134 17.46204038 33.99540269 17.46337771 C29.80505424 17.46442628 25.61484728 17.47034513 21.42453384 17.48819733 C17.48303765 17.50466297 13.54178954 17.50684095 9.60027122 17.49805832 C8.15428567 17.49728716 6.70828686 17.50164109 5.26233482 17.51151657 C3.28713839 17.52421477 1.3118425 17.5165753 -0.66337585 17.50793457 C-1.76839636 17.50940113 -2.87341686 17.51086769 -4.01192284 17.51237869 C-7.3791345 17.08999919 -9.26312352 16.14594392 -11.977005 14.14044189 C-13.52287376 11.04870438 -13.27060022 8.54614637 -12.977005 5.14044189 C-9.31537065 0.34243825 -5.76402431 0.01575605 0 0 Z " fill="#000000" transform="translate(261.9770050048828,136.85955810546875)"/>
<path d="M0 0 C1.3039119 -0.0112793 2.60782379 -0.02255859 3.95124817 -0.03417969 C5.39438088 -0.02640263 6.8375114 -0.01820996 8.28063965 -0.00964355 C9.80182058 -0.01506422 11.32299626 -0.02218657 12.84416199 -0.03088379 C16.97435807 -0.04912693 21.10415472 -0.0420457 25.23435783 -0.02936745 C29.5553381 -0.01924484 33.87628402 -0.02863106 38.19726562 -0.03491211 C45.45379786 -0.04219068 52.71016729 -0.03259535 59.9666748 -0.0135498 C68.35785739 0.00821941 76.74865123 0.00116818 85.13982439 -0.02085543 C92.34248957 -0.03900349 99.54503768 -0.04157068 106.74771833 -0.03110075 C111.05036765 -0.02486252 115.35283421 -0.02403914 119.6554718 -0.0372467 C123.7005058 -0.04879604 127.7450383 -0.04079672 131.79001808 -0.01766968 C133.27511067 -0.01237761 134.76024542 -0.01390493 136.24532127 -0.02272034 C138.27119827 -0.03363781 140.29716743 -0.01752415 142.32299805 0 C143.4571389 0.0015081 144.59127975 0.0030162 145.75978851 0.00457001 C149.30076804 0.61882963 150.47562775 1.71291128 152.66149902 4.50793457 C153.19274902 6.50793457 153.19274902 6.50793457 153.16149902 8.50793457 C153.17696777 9.49793457 153.17696777 9.49793457 153.19274902 10.50793457 C152.40976426 13.45564193 151.02076495 14.60416404 148.66149902 16.50793457 C145.75978851 17.01129913 145.75978851 17.01129913 142.32299805 17.01586914 C141.01908615 17.02714844 139.71517426 17.03842773 138.37174988 17.05004883 C136.92861716 17.04227177 135.48548664 17.0340791 134.0423584 17.0255127 C132.52117747 17.03093336 131.00000179 17.03805571 129.47883606 17.04675293 C125.34863997 17.06499607 121.21884333 17.05791484 117.08864021 17.04523659 C112.76765995 17.03511398 108.44671402 17.0445002 104.12573242 17.05078125 C96.86920019 17.05805982 89.61283076 17.04846449 82.35632324 17.02941895 C73.96514066 17.00764973 65.57434682 17.01470096 57.18317366 17.03672457 C49.98050848 17.05487263 42.77796037 17.05743982 35.57527971 17.04696989 C31.2726304 17.04073167 26.97016384 17.03990828 22.66752625 17.05311584 C18.62249225 17.06466518 14.57795975 17.05666586 10.53297997 17.03353882 C9.04788738 17.02824675 7.56275263 17.02977407 6.07767677 17.03858948 C4.05179978 17.04950695 2.02583062 17.03339329 0 17.01586914 C-1.13414085 17.01436104 -2.26828171 17.01285294 -3.43679047 17.01129913 C-6.97777 16.39703951 -8.15262971 15.30295786 -10.33850098 12.50793457 C-10.86975098 10.50793457 -10.86975098 10.50793457 -10.83850098 8.50793457 C-10.85396973 7.51793457 -10.85396973 7.51793457 -10.86975098 6.50793457 C-9.36572546 0.84572087 -5.26503167 0.00700108 0 0 Z " fill="#000000" transform="translate(259.3385009765625,217.4920654296875)"/>
<path d="M0 0 C0.72392441 -0.00335861 1.44784882 -0.00671722 2.19371033 -0.01017761 C4.58830478 -0.01968104 6.98282926 -0.02163046 9.37744141 -0.02270508 C11.04269439 -0.02591824 12.70794708 -0.02928236 14.37319946 -0.03279114 C17.86518 -0.03878099 21.35713578 -0.0406312 24.84912109 -0.04003906 C29.32028839 -0.03993748 33.79129674 -0.05358582 38.26242638 -0.07081127 C41.70255256 -0.08193882 45.14264041 -0.08395803 48.58278275 -0.08342934 C50.23097913 -0.08460846 51.87917654 -0.08902645 53.52735519 -0.0967617 C55.83475571 -0.10657623 58.14181251 -0.10367781 60.44921875 -0.09765625 C62.41754166 -0.09979378 62.41754166 -0.09979378 64.42562866 -0.10197449 C67.73316715 0.1365495 69.93130728 0.61846054 72.85400391 2.14526367 C75.22279984 4.98781879 75.85400391 6.49369737 75.85400391 10.20776367 C74.56454504 13.99554908 73.2221479 15.01255267 69.85400391 17.14526367 C67.13685636 17.53733163 64.82584789 17.70353808 62.11376953 17.67871094 C61.35053879 17.68732651 60.58730804 17.69594208 59.8009491 17.70481873 C57.28703557 17.72745564 54.77423877 17.72074502 52.26025391 17.71166992 C50.50817535 17.71690625 48.75609962 17.72318277 47.00402832 17.73045349 C43.33555822 17.74085323 39.66747613 17.73630205 35.99902344 17.72167969 C31.30108367 17.70448528 26.6043662 17.72799674 21.90656281 17.76316929 C18.28965166 17.78514277 14.67303309 17.78370212 11.05607605 17.77540398 C9.32413898 17.77458456 7.59218042 17.78144619 5.86030579 17.796175 C3.43752143 17.81362267 1.01693473 17.79908002 -1.40576172 17.77636719 C-2.47507683 17.79390549 -2.47507683 17.79390549 -3.56599426 17.8117981 C-7.39429171 17.73888174 -9.04817188 17.22212635 -12.09460449 14.82847595 C-14.14599609 12.14526367 -14.14599609 12.14526367 -14.70849609 8.58276367 C-14.0651333 4.65110216 -13.30151211 3.48936128 -10.14599609 1.14526367 C-6.59191567 -0.0394298 -3.7525598 0.01091388 0 0 Z " fill="#000000" transform="translate(263.14599609375,164.854736328125)"/>
<path d="M0 0 C4.16246896 3.73843366 6.64343027 7.86564854 7.1171875 13.54296875 C7.26998459 20.40275389 7.36036426 26.19208082 2.87890625 31.6875 C-2.24566299 36.56129245 -7.33038702 39.32988616 -14.43359375 40 C-22.04309016 39.35512742 -27.51112132 37.31867579 -32.6796875 31.5625 C-37.38497366 25.44180255 -38.05840329 19.15365528 -37.12109375 11.6875 C-35.26972314 5.01557949 -30.7272848 0.53113856 -25.12109375 -3.3125 C-16.43840561 -7.24428331 -7.46543864 -5.55567527 0 0 Z M-20.12109375 13.6875 C-21.13571765 15.4939655 -21.13571765 15.4939655 -21.12109375 17.6875 C-20.20086087 20.52678533 -20.20086087 20.52678533 -18.12109375 22.6875 C-14.87963583 23.22774299 -13.05116547 23.27654542 -10.24609375 21.5 C-8.71449791 19.03242892 -8.6928735 17.54230169 -9.12109375 14.6875 C-10.20442708 12.77083333 -10.20442708 12.77083333 -12.12109375 11.6875 C-15.86958452 11.21893865 -16.88855579 11.53247469 -20.12109375 13.6875 Z " fill="#000000" transform="translate(217.12109375,303.3125)"/>
<path d="M0 0 C6.09485744 6.57184628 7.36625791 11.81768238 7.27734375 20.69921875 C6.75725436 26.88901504 4.52710317 30.43818994 0.25 34.8125 C-5.7894319 38.87750224 -11.67120567 41.03883881 -19 40 C-26.13995202 38.29118032 -29.96444811 34.8271554 -34.25 28.875 C-37.58330168 23.39886152 -37.59231369 18.25792286 -37 12 C-35.19759924 5.37589021 -30.62747698 0.72421694 -25 -3 C-16.92731373 -6.7258552 -7.06737425 -5.22629356 0 0 Z M-20 14 C-21.11068406 17.01471387 -21.28969442 18.36948861 -19.9375 21.3125 C-18.04271382 23.27006817 -18.04271382 23.27006817 -15 23.4375 C-12.06747149 23.19983855 -12.06747149 23.19983855 -10.0625 21.875 C-8.72593708 19.9136096 -8.72593708 19.9136096 -9.1875 16.9375 C-9.76648363 13.90484132 -9.76648363 13.90484132 -12 12 C-15.73296326 11.61713197 -16.77626323 11.85084215 -20 14 Z " fill="#000000" transform="translate(217,142)"/>
<path d="M0 0 C5.16691514 3.02479824 9.43504706 7.84866083 11.625 13.4375 C12.48892098 20.82175093 12.74783247 27.71543004 8.1171875 33.82421875 C3.73040676 38.56699479 -0.60741823 41.99058685 -7.20703125 42.7734375 C-14.89405689 42.87418489 -20.36346768 42.13563136 -26.125 36.82421875 C-31.34423303 31.16586756 -32.87861095 25.65595759 -32.68359375 18.02734375 C-31.84144254 10.95966971 -28.70060246 6.06461476 -23.25390625 1.62890625 C-16.41908925 -2.70502137 -7.42752501 -3.33451508 0 0 Z M-14.0625 16.9375 C-14.825625 17.7625 -15.58875 18.5875 -16.375 19.4375 C-15.12523244 23.09066671 -14.70401247 24.21815836 -11.375 26.4375 C-8.79166667 26.35416667 -8.79166667 26.35416667 -6.375 25.4375 C-4.05461905 22.61181454 -4.05461905 22.61181454 -4.5625 19.375 C-5.11254498 16.14009047 -5.11254498 16.14009047 -8.375 14.4375 C-11.62065858 14.09694803 -11.62065858 14.09694803 -14.0625 16.9375 Z " fill="#000000" transform="translate(212.375,380.5625)"/>
<path d="M0 0 C4.72524251 3.5361771 7.96744355 7.71007556 9.78515625 13.3359375 C10.65481259 20.48542805 10.69535041 26.77186397 6.27734375 32.6875 C1.93983212 37.47920133 -2.45593439 40.89005308 -9.046875 41.671875 C-16.73390064 41.77262239 -22.20331143 41.03406886 -27.96484375 35.72265625 C-33.18407678 30.06430506 -34.7184547 24.55439509 -34.5234375 16.92578125 C-33.79569435 10.81826595 -31.37028443 6.04715591 -26.83984375 1.8984375 C-19.13889847 -3.96662842 -8.4832355 -4.91226368 0 0 Z M-13.21484375 13.3359375 C-14.86484375 14.9859375 -16.51484375 16.6359375 -18.21484375 18.3359375 C-17.14083267 21.25111042 -16.43674199 23.11403926 -14.21484375 25.3359375 C-11.18139421 25.2470875 -11.18139421 25.2470875 -8.21484375 24.3359375 C-5.84791409 21.48767152 -5.84791409 21.48767152 -6.58984375 18.1484375 C-6.79609375 17.2203125 -7.00234375 16.2921875 -7.21484375 15.3359375 C-9.19484375 14.6759375 -11.17484375 14.0159375 -13.21484375 13.3359375 Z " fill="#000000" transform="translate(214.21484375,220.6640625)"/>
<path d="M0 0 C0.78419815 -0.00700928 1.5683963 -0.01401855 2.37635803 -0.02124023 C4.96545955 -0.03882832 7.55346573 -0.02719518 10.14257812 -0.01367188 C11.94332082 -0.01636657 13.74406209 -0.0202488 15.5447998 -0.02526855 C19.31760521 -0.03116468 23.09003164 -0.02259707 26.86279297 -0.00390625 C31.69859736 0.01888351 36.53351377 0.00576102 41.36928558 -0.01819611 C45.08736867 -0.03265106 48.80524126 -0.02804952 52.52333069 -0.01768494 C54.30632126 -0.01501681 56.08933095 -0.01829045 57.87229919 -0.02760315 C60.36459969 -0.03776399 62.85546281 -0.02227559 65.34765625 0 C66.08440079 -0.00809692 66.82114532 -0.01619385 67.58021545 -0.02453613 C70.9961266 0.03201911 72.85093784 0.27197653 75.60437012 2.36633301 C77.65278735 5.17408419 78.10299804 7.04690394 78.17382812 10.51757812 C76.04339334 15.08279552 76.04339334 15.08279552 73.17382812 16.51757812 C70.63217084 16.63131978 68.11726576 16.68539017 65.57470703 16.69458008 C64.79080093 16.70115128 64.00689484 16.70772247 63.19923401 16.7144928 C60.59961863 16.73423796 58.00006101 16.74589019 55.40039062 16.75585938 C54.51357983 16.7599349 53.62676903 16.76401043 52.71308517 16.76820946 C48.02063987 16.78907399 43.32822386 16.80337484 38.63574219 16.81274414 C33.78428666 16.82381797 28.93328862 16.85822781 24.08199501 16.89791584 C20.35538874 16.92403317 16.62889236 16.93243154 12.90220261 16.93602562 C11.11359945 16.94090314 9.32500157 16.95255018 7.53648758 16.97106361 C5.03453307 16.99535506 2.53377406 16.99450893 0.03173828 16.98754883 C-1.07809166 17.00676392 -1.07809166 17.00676392 -2.21034241 17.02636719 C-5.68528263 16.99109834 -7.4994634 16.77070915 -10.28408813 14.61320496 C-11.95572608 12.34151942 -12.36969273 11.30291271 -12.32617188 8.51757812 C-12.34164062 7.52757812 -12.34164062 7.52757812 -12.35742188 6.51757812 C-10.68044492 0.2042531 -5.63652494 -0.06194618 0 0 Z " fill="#000000" transform="translate(260.826171875,245.482421875)"/>
</svg>
