<?xml version="1.0" encoding="UTF-8"?>
<svg version="1.1" xmlns="http://www.w3.org/2000/svg" width="512" height="512">
<path d="M0 0 C1.25951981 -0.01043099 2.51903961 -0.02086198 3.81672668 -0.03160906 C5.21709418 -0.02296054 6.61745937 -0.0139339 8.01782227 -0.00457001 C9.50335807 -0.00917738 10.98888933 -0.0155292 12.47441101 -0.02347898 C16.56234127 -0.04021816 20.6498993 -0.03190531 24.73783112 -0.01953411 C29.14417579 -0.01050461 33.55045528 -0.02444288 37.95678711 -0.0354538 C46.59106313 -0.05326612 55.22520029 -0.04938698 63.85948181 -0.03780323 C70.87500145 -0.02877984 77.89048209 -0.02754016 84.90600586 -0.0318985 C85.90343905 -0.03251143 86.90087225 -0.03312436 87.92853069 -0.03375587 C89.95462164 -0.03503473 91.98071258 -0.03633159 94.00680351 -0.03764623 C113.017835 -0.04905998 132.02878942 -0.03592587 151.03980827 -0.01444477 C167.3619453 0.00342693 183.68396854 0.00032304 200.00610352 -0.01811981 C218.94781875 -0.0395125 237.88946639 -0.04796127 256.83119202 -0.03567076 C258.84994506 -0.03439652 260.86869811 -0.03313904 262.88745117 -0.0318985 C264.37745652 -0.03097285 264.37745652 -0.03097285 265.89756298 -0.03002849 C272.90690416 -0.02657078 279.91620256 -0.03241299 286.92553711 -0.04181671 C295.46437963 -0.0530203 304.00307503 -0.05003128 312.54190063 -0.02869374 C316.90087993 -0.01816115 321.25961368 -0.01409889 325.61859131 -0.02729034 C329.605858 -0.03917465 333.59265061 -0.03271781 337.57987404 -0.01138014 C339.02530255 -0.00689715 340.47077079 -0.00921822 341.91617393 -0.01888329 C343.87524105 -0.03098227 345.83441974 -0.0162242 347.79345703 0 C349.4283181 0.00097411 349.4283181 0.00097411 351.09620667 0.00196791 C354.5768875 0.6251381 355.75889152 1.73732292 357.89672852 4.50336456 C358.40466309 7.17041779 358.40466309 7.17041779 358.41430664 10.24652863 C358.42691528 11.40162933 358.43952393 12.55673004 358.45251465 13.7468338 C358.44036926 15.6140509 358.44036926 15.6140509 358.42797852 17.51898956 C358.43180542 18.80392303 358.43563232 20.08885651 358.4395752 21.41272736 C358.44546809 24.13307686 358.43692084 26.85290053 358.41821289 29.57318878 C358.39551303 33.04109882 358.40848843 36.50776433 358.43250275 39.9756279 C358.4505428 43.30267791 358.43785812 46.62940432 358.42797852 49.95648956 C358.43607544 51.19320404 358.44417236 52.42991852 358.45251465 53.70410919 C358.3645778 61.84810076 357.4500368 67.44849586 351.93188477 73.74555206 C351.2809082 74.28438019 350.62993164 74.82320831 349.95922852 75.37836456 C349.31083008 75.93266144 348.66243164 76.48695831 347.99438477 77.05805206 C343.89142354 79.88504583 340.3257959 80.75396867 335.37719727 80.69867706 C334.35561523 80.69223175 333.3340332 80.68578644 332.28149414 80.67914581 C330.69884766 80.65400909 330.69884766 80.65400909 329.08422852 80.62836456 C328.00979492 80.61934113 326.93536133 80.61031769 325.82836914 80.60102081 C323.18425998 80.57751762 320.54060979 80.54466032 317.89672852 80.50336456 C317.91767578 81.40055206 317.93862305 82.29773956 317.96020508 83.22211456 C318.02880467 86.58436315 318.07873146 89.94585691 318.11645508 93.30854034 C318.13644147 94.75755374 318.16364049 96.20648781 318.19848633 97.65522003 C318.41893356 107.06312983 318.47526595 114.27855246 311.93188477 121.74555206 C311.2809082 122.28438019 310.62993164 122.82320831 309.95922852 123.37836456 C309.31083008 123.93266144 308.66243164 124.48695831 307.99438477 125.05805206 C303.81034611 127.94090924 300.20169784 128.75261557 295.15844727 128.69867706 C293.55839844 128.68900909 293.55839844 128.68900909 291.92602539 128.67914581 C290.27183594 128.65400909 290.27183594 128.65400909 288.58422852 128.62836456 C287.46209961 128.61934113 286.3399707 128.61031769 285.18383789 128.60102081 C282.42124942 128.57750942 279.6590992 128.54464611 276.89672852 128.50336456 C276.78973633 129.69188019 276.68274414 130.88039581 276.57250977 132.10492706 C275.82649827 138.77591606 274.45253341 145.31185921 273.08422852 151.87836456 C272.83608398 153.14809113 272.58793945 154.41781769 272.33227539 155.72602081 C271.95232422 157.54553253 271.95232422 157.54553253 271.56469727 159.40180206 C271.2286145 161.05188263 271.2286145 161.05188263 270.88574219 162.73529816 C269.7094284 166.02758294 268.89561927 166.77945579 265.89672852 168.50336456 C262.88110352 168.79633331 262.88110352 168.79633331 259.64672852 168.69086456 C258.56907227 168.66379425 257.49141602 168.63672394 256.38110352 168.60883331 C255.56125977 168.57402863 254.74141602 168.53922394 253.89672852 168.50336456 C254.03462799 169.09871002 254.17252747 169.69405548 254.31460571 170.30744171 C257.60032229 184.58503048 260.60183073 198.89694382 263.3950119 213.27771759 C264.45836547 218.73344298 265.54188837 224.18521181 266.62398911 229.63724518 C267.55351362 234.33029625 268.46926539 239.02536934 269.35961914 243.72602081 C270.23705628 248.35418196 271.14867336 252.9744026 272.08424759 257.59114838 C272.43086199 259.33340796 272.76495204 261.07820996 273.08594894 262.82537079 C273.53245562 265.24604094 274.02220895 267.65401722 274.52319336 270.06391144 C274.64396744 270.77746796 274.76474152 271.49102448 274.88917542 272.22620392 C275.31567676 274.49850071 275.31567676 274.49850071 276.89672852 277.50336456 C279.45068531 279.01780567 282.03618722 279.76786346 284.89672852 280.50336456 C331.36810956 298.05614481 385.47086884 329.86457506 413.89672852 372.50336456 C414.73437627 376.76775315 414.74290674 379.0698955 412.51782227 382.83930206 C402.80513916 395.19398703 390.8027682 406.29591775 378.89672852 416.50336456 C377.4155957 417.80660675 377.4155957 417.80660675 375.90454102 419.13617706 C343.15116758 447.45142402 289.72385147 483.64501532 243.89672852 480.50336456 C240.42251201 478.83374109 239.06150377 477.75052745 236.89672852 474.50336456 C236.43619425 470.97260183 236.58693969 469.07202984 238.29907227 465.92914581 C242.09333337 462.38593357 245.80725876 462.24444698 250.83422852 461.56586456 C290.26882771 455.23007578 324.97726535 436.26357211 355.89672852 411.50336456 C356.81583008 410.77762238 357.73493164 410.05188019 358.68188477 409.30414581 C370.86948564 399.536529 381.94570336 388.61569778 392.89672852 377.50336456 C391.4270066 374.11217563 389.53301136 371.88222323 386.93188477 369.27289581 C386.13766113 368.47448273 385.3434375 367.67606964 384.52514648 366.85346222 C383.67839355 366.01605499 382.83164062 365.17864777 381.95922852 364.31586456 C380.65816162 363.02494904 380.65816162 363.02494904 379.33081055 361.70795441 C373.43206321 355.90411676 367.49627556 350.50274746 360.89672852 345.50336456 C359.591021 344.48253247 358.28642609 343.46027643 356.98266602 342.43695831 C344.09991963 332.38004765 330.91545931 323.52840613 316.70922852 315.44086456 C315.70424316 314.86787628 314.69925781 314.294888 313.66381836 313.70453644 C312.71587402 313.17279816 311.76792969 312.64105988 310.79125977 312.09320831 C309.944104 311.61746368 309.09694824 311.14171906 308.22412109 310.65155792 C306.09530607 309.6013306 304.21530275 308.96614383 301.89672852 308.50336456 C302.4162207 309.29098175 302.93571289 310.07859894 303.47094727 310.89008331 C308.33088855 318.48093431 312.16823147 325.85278871 314.89672852 334.50336456 C315.37625977 336.01350128 315.37625977 336.01350128 315.86547852 337.55414581 C321.90577226 360.45692624 318.15267361 385.27353774 306.58422852 405.75336456 C306.02735352 406.66086456 305.47047852 407.56836456 304.89672852 408.50336456 C313.86826509 406.28880869 322.21451821 403.10680713 330.73071289 399.55609894 C340.01156709 395.79559314 340.01156709 395.79559314 344.89672852 396.50336456 C347.77172852 397.94086456 347.77172852 397.94086456 349.89672852 400.50336456 C350.60925466 403.63503189 350.82116636 406.41465459 349.89672852 409.50336456 C346.00057814 413.51433273 341.19931423 415.27472669 336.08422852 417.25336456 C335.21330566 417.59480499 334.34238281 417.93624542 333.44506836 418.28803253 C286.24623086 436.51200495 237.16395666 447.07809997 186.89672852 436.50336456 C185.95522949 436.31032745 185.01373047 436.11729034 184.04370117 435.91840363 C170.50425816 433.05785868 157.39227481 428.84924554 144.27172852 424.50336456 C143.51063782 424.25223907 142.74954712 424.00111359 141.96539307 423.74237823 C113.68901904 414.36406153 113.68901904 414.36406153 109.89672852 409.50336456 C108.80227306 405.90729662 108.57706378 404.20662699 110.14672852 400.75336456 C111.89672852 398.50336456 111.89672852 398.50336456 114.89672852 396.50336456 C122.97296527 396.63415382 129.73654706 399.49245562 137.14672852 402.50336456 C139.44218 403.4235901 141.73900637 404.34039526 144.03735352 405.25336456 C145.04314453 405.66070831 146.04893555 406.06805206 147.08520508 406.48773956 C149.692845 407.42971439 152.16744601 408.04369593 154.89672852 408.50336456 C154.36563477 407.49918488 153.83454102 406.49500519 153.28735352 405.46039581 C141.89296349 383.54417128 137.4579451 359.06358966 144.70141602 334.90180206 C148.15077676 325.09479601 152.44403052 316.36596304 157.89672852 307.50336456 C136.74784177 317.83747968 116.98087951 330.41450645 98.89672852 345.50336456 C98.355 345.9450296 97.81327148 346.38669464 97.25512695 346.84174347 C86.42528712 355.67130748 76.66024098 365.52318146 66.89672852 375.50336456 C68.36645043 378.89455349 70.26044567 381.12450589 72.86157227 383.73383331 C73.65595703 384.53232697 74.4503418 385.33082062 75.26879883 386.15351105 C76.11539063 386.99083771 76.96198242 387.82816437 77.83422852 388.69086456 C78.70015625 389.55074982 79.56608398 390.41063507 80.45825195 391.29657745 C86.35796362 397.10510774 92.33985801 402.44792237 98.89672852 407.50336456 C99.98566834 408.40077551 101.07139662 409.30209222 102.15454102 410.20648956 C134.35602664 436.91459787 172.8134537 457.29022636 214.66625977 462.70258331 C218.31345426 463.60666417 219.69636511 464.48805175 221.89672852 467.50336456 C222.62580753 470.24813263 222.45525627 472.72782356 221.89672852 475.50336456 C219.97354627 478.38813793 218.70888244 479.27888724 215.38110352 480.19867706 C210.64627154 480.61270946 206.41984931 479.83001374 201.77172852 478.94086456 C200.80251465 478.75813995 199.83330078 478.57541534 198.8347168 478.38715363 C153.4549261 469.45150729 113.04047088 445.09113251 78.89672852 414.50336456 C77.91833008 413.6358255 76.93993164 412.76828644 75.93188477 411.87445831 C69.94065527 406.47833081 64.17348442 400.87781686 58.45922852 395.19086456 C57.78456543 394.52087433 57.10990234 393.85088409 56.41479492 393.16059113 C44.89672852 381.60506291 44.89672852 381.60506291 44.89672852 374.50336456 C47.0000735 370.28260539 50.00259648 366.97278003 53.20922852 363.56586456 C53.72904297 363.00882843 54.24885742 362.4517923 54.78442383 361.87787628 C63.40516819 352.70268571 72.17043279 343.51716719 81.89672852 335.50336456 C82.69554443 334.83385773 82.69554443 334.83385773 83.51049805 334.1508255 C112.19084294 310.13687923 145.36680012 288.19085939 181.89672852 278.50336456 C184.79787966 266.76696479 186.93961231 254.90020803 189.12719727 243.01508331 C189.52622439 240.85885323 189.92550535 238.7026701 190.32502747 236.54653168 C191.36815648 230.91322241 192.40787004 225.27928817 193.44683838 219.64521027 C194.5107282 213.87944294 195.5778956 208.11428237 196.64477539 202.34906769 C198.73194172 191.06775327 200.8154951 179.78577491 202.89672852 168.50336456 C202.27574469 168.51707911 201.65476086 168.53079365 201.01495934 168.54492378 C200.20197191 168.55559065 199.38898449 168.56625751 198.55136108 168.57724762 C197.74475225 168.59096216 196.93814342 168.6046767 196.1070919 168.61880684 C193.89672852 168.50336456 193.89672852 168.50336456 191.42260742 167.32123566 C189.50575245 165.03757132 189.04928295 163.34087963 188.48266602 160.41742706 C188.1771582 158.89568878 188.1771582 158.89568878 187.86547852 157.34320831 C187.66954102 156.28230988 187.47360352 155.22141144 187.27172852 154.12836456 C187.06805664 153.106138 186.86438477 152.08391144 186.65454102 151.03070831 C185.58617296 145.57244332 184.66174701 140.10086379 183.82495117 134.60248566 C183.64968903 133.45380005 183.47442688 132.30511444 183.29385376 131.12162018 C183.16280243 130.25759583 183.0317511 129.39357147 182.89672852 128.50336456 C181.61157349 128.51224701 180.32641846 128.52112946 179.00231934 128.53028107 C166.878757 128.61144039 154.75524993 128.67136544 142.63147736 128.71061325 C136.3988155 128.73146943 130.16637333 128.75975174 123.93383789 128.80512238 C117.91676174 128.8486494 111.89989663 128.87251649 105.88267517 128.88287354 C103.58939798 128.89025251 101.29613207 128.90466194 99.00294495 128.92628479 C95.78564683 128.95540908 92.56921581 128.95931668 89.35180664 128.95746613 C88.40809204 128.97184723 87.46437744 128.98622833 86.49206543 129.00104523 C79.35213685 128.95673716 74.06774382 127.28214627 68.65454102 122.53852081 C68.11571289 121.88754425 67.57688477 121.23656769 67.02172852 120.56586456 C66.46743164 119.91746613 65.91313477 119.26906769 65.34204102 118.60102081 C61.43535043 112.93104016 61.09229359 107.20698898 61.89672852 100.50336456 C63.39672852 97.81586456 63.39672852 97.81586456 65.89672852 96.50336456 C69.81735454 95.75619608 72.78295839 95.81102097 76.20922852 97.94086456 C78.22523005 101.00220023 79.04981891 103.93105979 79.89282227 107.47992706 C80.73796506 109.66889643 80.73796506 109.66889643 82.9304657 110.61395645 C86.76244848 111.76294317 90.39919614 111.77966687 94.36083984 111.75733185 C95.21096303 111.76045183 96.06108622 111.76357181 96.93697071 111.76678634 C99.78430435 111.77476076 102.63142455 111.76844483 105.47875977 111.76215363 C107.52062098 111.76486373 109.56248122 111.76842477 111.6043396 111.77277374 C117.14968128 111.78189765 122.6949486 111.77835345 128.2402916 111.77201557 C134.04089307 111.76695562 139.84148813 111.77164702 145.64208984 111.7747879 C155.38355656 111.77842755 165.12499296 111.77362846 174.86645508 111.76410675 C186.13236705 111.75322222 197.39820664 111.75674779 208.66411686 111.76775956 C218.3330119 111.77683245 228.00188513 111.7781177 237.67078304 111.77288222 C243.44725163 111.76976254 249.22368618 111.76935316 255.00015259 111.7759552 C260.43052182 111.78172803 265.86079764 111.77773285 271.29115677 111.76616669 C273.28540517 111.76351978 275.27966142 111.76428572 277.27390671 111.76869202 C279.9935834 111.77414761 282.71295969 111.76731308 285.43261719 111.75733185 C286.22395963 111.76179329 287.01530207 111.76625473 287.83062458 111.77085137 C291.91021482 111.7417612 295.37554414 111.68164607 298.89672852 109.50336456 C300.70002369 105.87693966 301.18174699 102.78695538 301.31079102 98.76508331 C301.34946289 97.69838409 301.38813477 96.63168488 301.42797852 95.53266144 C301.45891602 94.42986847 301.48985352 93.3270755 301.52172852 92.19086456 C301.56040039 91.06873566 301.59907227 89.94660675 301.63891602 88.79047394 C301.73294862 86.02826604 301.81860192 83.26606056 301.89672852 80.50336456 C300.92142886 80.50564288 300.92142886 80.50564288 299.92642617 80.50796723 C261.41392412 80.59742588 222.90143545 80.66608362 184.38885058 80.70762588 C179.76745295 80.71262887 175.14605552 80.71780615 170.5246582 80.72309113 C169.6045981 80.72414037 168.68453799 80.72518961 167.73659727 80.72627065 C152.82745684 80.743689 137.91837793 80.77523454 123.00927404 80.81197575 C107.71793076 80.84934541 92.42661976 80.87159199 77.13523269 80.87971854 C67.69507887 80.88521458 58.25509891 80.90259039 48.8149986 80.93503043 C42.3467924 80.9561293 35.87867646 80.96257514 29.41043833 80.95737007 C25.67523194 80.95480104 21.94032995 80.95881509 18.20517731 80.98018646 C14.16012316 81.00316265 10.11572189 80.99534479 6.07061768 80.98438263 C4.88385697 80.996034 3.69709626 81.00768536 2.4743731 81.0196898 C1.39352307 81.0117256 0.31267304 81.00376141 -0.80093002 80.99555588 C-2.20209804 80.9978342 -2.20209804 80.9978342 -3.63157248 81.00015855 C-6.85779871 80.35170994 -8.056815 79.02172743 -10.10327148 76.50336456 C-10.63452148 74.50336456 -10.63452148 74.50336456 -10.60327148 72.50336456 C-10.61874023 71.51336456 -10.61874023 71.51336456 -10.63452148 70.50336456 C-9.85669738 67.57508557 -8.43014162 66.408374 -6.10327148 64.50336456 C-3.43214089 64.00245988 -3.43214089 64.00245988 -0.31514072 64.0011425 C0.87409447 63.99092831 2.06332967 63.98071412 3.28860229 63.97019041 C4.59646275 63.97931506 5.9043232 63.98843972 7.2518158 63.99784088 C8.65414314 63.99339894 10.05646583 63.98719784 11.45877844 63.97938597 C15.31675322 63.96296501 19.17433729 63.97144471 23.03231227 63.98387718 C27.19123275 63.99291984 31.35008146 63.97891953 35.50898743 63.96761322 C42.71716951 63.95109665 49.92524066 63.94898167 57.1334362 63.95637894 C67.56075185 63.96688434 77.98793146 63.9535186 88.41522903 63.93391438 C105.33931979 63.90256017 122.26338186 63.88756754 139.1875 63.88422394 C140.7073532 63.88391796 140.7073532 63.88391796 142.2579105 63.88360579 C143.27241867 63.88340242 144.28692685 63.88319906 145.3321777 63.88298953 C159.71331812 63.88006994 174.0944497 63.87326825 188.47558594 63.861763 C189.48728652 63.86095771 190.49898711 63.86015241 191.54134529 63.85932271 C208.40016121 63.84557541 225.25896127 63.82379127 242.11776263 63.79789317 C252.52085859 63.7824337 262.9239028 63.77524225 273.32701004 63.77868809 C280.45301865 63.78072585 287.5790015 63.77607835 294.70500343 63.76614474 C298.81898931 63.76070334 302.93290854 63.7586522 307.04689407 63.76531792 C310.81141712 63.77138712 314.57581828 63.76836757 318.34033114 63.75808103 C320.3505922 63.75501856 322.36086077 63.76187206 324.37111133 63.76905191 C326.15887575 63.76155386 326.15887575 63.76155386 327.98275661 63.75390434 C329.01152902 63.75379431 330.04030143 63.75368428 331.10024875 63.75357091 C334.08045 63.48692665 336.2294434 62.84535773 338.89672852 61.50336456 C341.60153902 57.19876387 341.24373135 52.19472873 341.31079102 47.26508331 C341.33015717 46.38431625 341.34952332 45.50354919 341.36947632 44.59609222 C341.42905703 41.7944469 341.47557116 38.99276001 341.52172852 36.19086456 C341.55992811 34.28655018 341.59898099 32.38225272 341.63891602 30.47797394 C341.73474084 25.81990884 341.81885111 21.16176289 341.89672852 16.50336456 C340.79447068 16.50564288 340.79447068 16.50564288 339.669945 16.50796723 C296.14717108 16.59741977 252.62440714 16.66608053 209.10155977 16.70762588 C203.87931118 16.71262889 198.65706277 16.71780616 193.43481445 16.72309113 C192.39512975 16.72414037 191.35544506 16.72518961 190.28425476 16.72627065 C173.43516017 16.74369049 156.58611999 16.77523685 139.73705772 16.81197575 C122.45689217 16.84934126 105.17675518 16.87159111 87.89655089 16.87971854 C77.22802721 16.88521544 66.55965732 16.90259593 55.89118096 16.93503043 C48.58198566 16.95612416 41.27287023 16.9625763 33.96364668 16.95737007 C29.7423901 16.95480025 25.52140285 16.95882422 21.30019379 16.98018646 C17.43862495 16.99958663 13.57750771 17.0006776 9.71591851 16.98696014 C8.31611673 16.98526365 6.91628728 16.99039346 5.51654032 17.00289729 C3.6190141 17.01886739 1.7213178 17.00794127 -0.1762352 16.99555588 C-1.23185772 16.99707476 -2.28748024 16.99859364 -3.37509131 17.00015855 C-6.79266302 16.37782829 -7.9713456 15.18850931 -10.10327148 12.50336456 C-10.63452148 10.50336456 -10.63452148 10.50336456 -10.60327148 8.50336456 C-10.61874023 7.51336456 -10.61874023 7.51336456 -10.63452148 6.50336456 C-9.16309838 0.96388933 -5.17949756 0.00308615 0 0 Z M199.89672852 128.50336456 C201.54672852 136.42336456 203.19672852 144.34336456 204.89672852 152.50336456 C221.39672852 152.50336456 237.89672852 152.50336456 254.89672852 152.50336456 C256.54672852 144.58336456 258.19672852 136.66336456 259.89672852 128.50336456 C240.09672852 128.50336456 220.29672852 128.50336456 199.89672852 128.50336456 Z M220.89672852 168.50336456 C217.96357658 179.47588641 215.93089794 190.56437083 213.88500977 201.72992706 C213.50843309 203.77069934 213.13157182 205.81141911 212.75444031 207.85208893 C211.9696944 212.1027704 211.18746286 216.35390384 210.40722656 220.60541534 C209.40564098 226.06263354 208.39909227 231.51892162 207.39086628 236.97491646 C206.61477699 241.17638328 205.84056599 245.37819434 205.06700706 249.58012772 C204.69621746 251.59371767 204.32500413 253.60722965 203.95336342 255.62066269 C203.43698698 258.42058962 202.92297001 261.22093902 202.40966797 264.02143097 C202.17829384 265.27276825 202.17829384 265.27276825 201.94224548 266.54938507 C201.17644981 270.50042499 201.17644981 270.50042499 200.89672852 274.50336456 C211.29172852 273.51336456 211.29172852 273.51336456 221.89672852 272.50336456 C221.93411133 269.93941925 221.97149414 267.37547394 222.01000977 264.73383331 C222.05621688 262.25156861 222.10745336 259.7694552 222.15917969 257.28730011 C222.19244024 255.56180764 222.2204687 253.83620607 222.24316406 252.1105423 C222.27669005 249.63033291 222.32900258 247.15112426 222.38500977 244.67133331 C222.39139969 243.89936111 222.39778961 243.12738892 222.40437317 242.33202362 C222.55113685 236.98972847 222.55113685 236.98972847 224.30761719 234.51776886 C226.29308382 233.25035238 227.55001961 233.10169742 229.89672852 233.12836456 C230.91766602 233.116763 230.91766602 233.116763 231.95922852 233.10492706 C234.63304312 233.6547841 235.3013256 234.25809515 236.89672852 236.50336456 C237.22782375 239.29477218 237.38530529 241.87553144 237.40844727 244.67133331 C237.42639847 245.46614609 237.44434967 246.26095886 237.46284485 247.07985687 C237.51699821 249.61680557 237.5508588 252.15356563 237.58422852 254.69086456 C237.61739725 256.41159397 237.6518865 258.13229846 237.68774414 259.85297394 C237.77521325 264.06979869 237.83523505 268.28576069 237.89672852 272.50336456 C244.49672852 273.16336456 251.09672852 273.82336456 257.89672852 274.50336456 C257.17021567 267.54723507 257.17021567 267.54723507 256.01719666 260.7385788 C255.84753891 259.91003387 255.67788116 259.08148895 255.50308228 258.22783661 C255.31966278 257.35317245 255.13624329 256.4785083 254.94726562 255.57733917 C254.75204819 254.62992859 254.55683075 253.68251801 254.35569763 252.70639801 C253.71571453 249.60534872 253.06994202 246.50553641 252.42407227 243.40570831 C251.97673732 241.24388178 251.52976706 239.08197975 251.08314514 236.9200058 C249.91134028 231.25253528 248.73460764 225.58609903 247.55682373 219.91986847 C246.35397938 214.12865906 245.15582882 208.33647888 243.95727539 202.54438019 C241.60833614 191.19642342 239.25418654 179.84955444 236.89672852 168.50336456 C231.61672852 168.50336456 226.33672852 168.50336456 220.89672852 168.50336456 Z M206.89672852 298.50336456 C204.75861061 300.71275306 203.93824083 301.73538678 203.77172852 304.81586456 C206.42384503 311.15147624 211.95054664 314.94201664 218.00219727 317.77680206 C225.36652156 320.60105839 233.74160026 320.62321752 241.14672852 317.94086456 C247.06700753 315.27673901 251.3637333 311.03635977 255.89672852 306.50336456 C255.80126144 302.97108269 254.99478737 301.6150427 252.64672852 298.94086456 C251.28547852 297.73430206 251.28547852 297.73430206 249.89672852 296.50336456 C249.11297852 295.78148956 248.32922852 295.05961456 247.52172852 294.31586456 C244.31855214 292.10414754 241.66886643 291.39092643 237.89672852 290.50336456 C237.8593457 291.19043488 237.82196289 291.87750519 237.78344727 292.58539581 C237.71770508 293.4864505 237.65196289 294.38750519 237.58422852 295.31586456 C237.4972168 296.65584503 237.4972168 296.65584503 237.40844727 298.02289581 C236.82025353 300.87406393 236.26394266 301.840356 233.89672852 303.50336456 C231.95922852 303.90180206 231.95922852 303.90180206 229.89672852 303.87836456 C228.87579102 303.88996613 228.87579102 303.88996613 227.83422852 303.90180206 C225.2644003 303.37332932 224.42320559 302.62936435 222.89672852 300.50336456 C222.38500977 298.02289581 222.38500977 298.02289581 222.20922852 295.31586456 C222.14348633 294.41480988 222.07774414 293.51375519 222.01000977 292.58539581 C221.97262695 291.8983255 221.93524414 291.21125519 221.89672852 290.50336456 C216.48730945 290.50336456 210.7029124 295.02342501 206.89672852 298.50336456 Z M178.27172852 310.81586456 C164.14792522 325.16706362 158.34186893 343.49809411 158.47949219 363.21967316 C159.02335976 383.38566503 167.5055364 399.75267056 181.89672852 413.50336456 C182.64587524 414.28937042 182.64587524 414.28937042 183.41015625 415.09125519 C188.33618759 419.89942488 193.13563534 420.95073551 199.83422852 421.87836456 C200.9125293 422.03627472 201.99083008 422.19418488 203.10180664 422.35688019 C222.99084319 424.95992123 257.63959035 428.94972872 274.85766602 417.10492706 C277.95704559 414.57394897 280.43047413 411.65324736 282.89672852 408.50336456 C283.54899414 407.79180206 284.20125977 407.08023956 284.87329102 406.34711456 C298.30300881 390.96505894 302.069404 371.93564705 301.09936523 352.11371613 C299.70589737 334.16316387 290.3540352 319.80037502 277.89672852 307.50336456 C276.94863325 310.34765036 276.81963846 311.8324391 276.93969727 314.74945831 C277.42334006 331.28139383 274.6634653 343.06161969 263.39672852 355.62836456 C255.46437898 363.21187272 244.75242752 367.58427184 233.89672852 368.50336456 C232.87192383 368.59037628 232.87192383 368.59037628 231.82641602 368.67914581 C229.81751135 368.75641138 227.89991448 368.67344639 225.89672852 368.50336456 C225.08977539 368.43504425 224.28282227 368.36672394 223.45141602 368.29633331 C210.40325248 366.56545448 198.92591554 359.89407718 190.89672852 349.50336456 C184.66840837 339.33044166 182.58126322 330.36738743 182.77172852 318.56586456 C182.78075195 317.50045441 182.78977539 316.43504425 182.79907227 315.33734894 C182.82249437 312.72578423 182.855294 310.11469519 182.89672852 307.50336456 C180.95230803 307.50336456 179.5830198 309.55267084 178.27172852 310.81586456 Z M199.89672852 326.50336456 C201.43735066 335.79524186 207.44761262 342.07900835 214.89672852 347.50336456 C222.31560494 351.54748893 230.25347783 352.1859524 238.38500977 350.28070831 C246.79700467 347.67730709 252.92138654 342.7561518 257.89672852 335.50336456 C259.22506287 332.5569585 260.18197723 329.65273741 260.89672852 326.50336456 C259.50260742 327.22652863 259.50260742 327.22652863 258.08032227 327.96430206 C256.83179097 328.60264889 255.58308356 329.24065135 254.33422852 329.87836456 C253.72514648 330.19547394 253.11606445 330.51258331 252.48852539 330.83930206 C241.41155654 336.46569894 228.60553092 337.33627519 216.46313477 334.78070831 C213.80984584 333.85111631 211.38805519 332.80300664 208.89672852 331.50336456 C208.02016602 331.0483255 207.14360352 330.59328644 206.24047852 330.12445831 C204.09469437 328.96215857 201.98670268 327.76250949 199.89672852 326.50336456 Z " fill="#000000" transform="translate(26.103271484375,15.496635437011719)"/>
<path d="M0 0 C1.10794922 -0.01260864 2.21589844 -0.02521729 3.35742188 -0.03820801 C4.54916016 -0.03011108 5.74089844 -0.02201416 6.96875 -0.01367188 C8.19658203 -0.01749878 9.42441406 -0.02132568 10.68945312 -0.02526855 C13.28516459 -0.02799029 15.88090336 -0.02061099 18.4765625 -0.00390625 C22.45374599 0.01749738 26.42912282 -0.0037015 30.40625 -0.02929688 C32.92708733 -0.02665365 35.44792353 -0.02152878 37.96875 -0.01367188 C39.16048828 -0.0217688 40.35222656 -0.02986572 41.58007812 -0.03820801 C43.24200195 -0.01929504 43.24200195 -0.01929504 44.9375 0 C45.91138672 0.00318237 46.88527344 0.00636475 47.88867188 0.00964355 C51.23812406 0.66904318 52.42312814 1.82319641 54.46875 4.51757812 C54.97668457 6.49023437 54.97668457 6.49023437 54.98632812 8.58007812 C54.99893677 9.36769531 55.01154541 10.1553125 55.02453613 10.96679688 C55.01643921 11.80855469 55.00834229 12.6503125 55 13.51757812 C55.0038269 14.39027344 55.00765381 15.26296875 55.01159668 16.16210938 C55.0143149 18.00456905 55.00695994 19.84706737 54.99023438 21.68945312 C54.96882248 24.50803746 54.99003801 27.32407297 55.015625 30.14257812 C55.01298171 31.93425041 55.00785669 33.72592111 55 35.51757812 C55.00809692 36.35933594 55.01619385 37.20109375 55.02453613 38.06835938 C55.00562317 39.24978516 55.00562317 39.24978516 54.98632812 40.45507812 C54.98314575 41.14472656 54.97996338 41.834375 54.97668457 42.54492188 C54.21863449 45.48894719 52.85473442 46.68329988 50.46875 48.51757812 C47.88867188 49.0255127 47.88867188 49.0255127 44.9375 49.03515625 C43.82955078 49.04776489 42.72160156 49.06037354 41.58007812 49.07336426 C40.38833984 49.06526733 39.19660156 49.05717041 37.96875 49.04882812 C36.12700195 49.05456848 36.12700195 49.05456848 34.24804688 49.0604248 C31.65233541 49.06314654 29.05659664 49.05576724 26.4609375 49.0390625 C22.48375401 49.01765887 18.50837718 49.03885775 14.53125 49.06445312 C12.01041267 49.0618099 9.48957647 49.05668503 6.96875 49.04882812 C5.77701172 49.05692505 4.58527344 49.06502197 3.35742188 49.07336426 C1.69549805 49.05445129 1.69549805 49.05445129 0 49.03515625 C-1.46083008 49.03038269 -1.46083008 49.03038269 -2.95117188 49.0255127 C-6.27462157 48.37123212 -7.47335354 47.16073005 -9.53125 44.51757812 C-9.921875 41.50195312 -9.921875 41.50195312 -9.78125 38.26757812 C-9.74515625 37.18992188 -9.7090625 36.11226562 -9.671875 35.00195312 C-9.62546875 34.18210938 -9.5790625 33.36226562 -9.53125 32.51757812 C-25.02375582 30.57144984 -25.02375582 30.57144984 -39.21630859 35.43261719 C-41.60056985 37.93099433 -43.47845032 40.42539621 -45.34375 43.33007812 C-45.9227002 44.22557373 -46.50165039 45.12106934 -47.09814453 46.04370117 C-51.17758682 53.43021309 -50.3947304 58.5475404 -48.53125 66.51757812 C-46.93204531 81.93979349 -50.16432315 97.42035988 -59.98046875 109.69335938 C-69.24341949 120.60125916 -81.17830498 128.3889634 -95.53125 130.51757812 C-98.65731753 130.68199106 -101.77634344 130.7026556 -104.90625 130.70507812 C-105.73125 130.71732422 -106.55625 130.72957031 -107.40625 130.7421875 C-113.56486674 130.75685087 -119.10168764 130.52196708 -124.03125 126.45507812 C-125.85478589 122.88398701 -125.75739086 120.70754191 -125.37890625 116.79882812 C-124.16526279 113.53261715 -122.08508922 111.85251684 -119.53125 109.51757812 C-106.078338 97.05223715 -97.72596185 82.9900758 -96.29296875 64.43164062 C-96.07716616 54.86817849 -97.17277111 44.23453591 -101.53125 35.51757812 C-102.06243252 30.59760885 -102.28230553 26.74430215 -99.65625 22.45507812 C-96.64452608 19.70909455 -95.99363244 19.51757812 -91.78125 19.51757812 C-81.04233487 20.90101325 -71.96517129 27.32881395 -64.421875 34.69726562 C-62.65401934 36.58044312 -62.65401934 36.58044312 -60.53125 37.51757812 C-60.18344482 36.95248535 -59.83563965 36.38739258 -59.47729492 35.80517578 C-57.89763627 33.24688135 -56.30833544 30.69471531 -54.71875 28.14257812 C-54.17154297 27.253125 -53.62433594 26.36367187 -53.06054688 25.44726562 C-52.52880859 24.59648437 -51.99707031 23.74570313 -51.44921875 22.86914062 C-50.96219482 22.08361816 -50.4751709 21.2980957 -49.97338867 20.48876953 C-48.53125 18.51757812 -48.53125 18.51757812 -45.53125 16.51757812 C-42.77338585 16.34580037 -40.11909476 16.28541575 -37.36328125 16.32226562 C-36.17106209 16.32651047 -36.17106209 16.32651047 -34.95475769 16.33084106 C-32.41760162 16.34203108 -29.88079928 16.36713322 -27.34375 16.39257812 C-25.62305198 16.40260946 -23.90234841 16.41173505 -22.18164062 16.41992188 C-17.96470757 16.44196652 -13.74803875 16.47648806 -9.53125 16.51757812 C-9.57765625 15.69773438 -9.6240625 14.87789062 -9.671875 14.03320312 C-9.70796875 12.95554688 -9.7440625 11.87789062 -9.78125 10.76757812 C-9.82765625 9.70023438 -9.8740625 8.63289062 -9.921875 7.53320312 C-9.15620481 1.62222928 -5.56607206 0.01818827 0 0 Z M6.46875 16.51757812 C6.46875 21.79757813 6.46875 27.07757813 6.46875 32.51757812 C17.02875 32.51757812 27.58875 32.51757812 38.46875 32.51757812 C38.46875 27.23757812 38.46875 21.95757812 38.46875 16.51757812 C27.90875 16.51757812 17.34875 16.51757812 6.46875 16.51757812 Z M-80.53125 44.51757812 C-80.37140625 45.49726563 -80.2115625 46.47695312 -80.046875 47.48632812 C-77.05130309 68.64653821 -81.97489174 87.76828645 -92.98046875 105.92382812 C-94.27393257 108.08720338 -95.44365665 110.24595457 -96.53125 112.51757812 C-88.51440325 112.33942597 -82.1760447 107.88716733 -76.41015625 102.55664062 C-68.02665398 93.43394783 -65.00991205 83.39237119 -65.21875 71.08398438 C-66.0777655 61.28047 -71.01086436 51.03932177 -78.53125 44.51757812 C-79.19125 44.51757812 -79.85125 44.51757812 -80.53125 44.51757812 Z " fill="#000000" transform="translate(441.53125,159.482421875)"/>
<path d="M0 0 C2.5 1.5 2.5 1.5 4 4 C4.95528669 10.68700684 4.95528669 10.68700684 2.2265625 14.4375 C-2.04937651 18.39608712 -7.83651472 20.02397556 -13.1875 22.0625 C-15.61140106 23.01569723 -18.03322549 23.97418922 -20.453125 24.9375 C-21.07211166 25.18375626 -21.69109833 25.43001251 -22.32884216 25.68373108 C-29.13759375 28.41622354 -35.78801136 31.46411624 -42.4375 34.5625 C-43.53795654 35.07498291 -44.63841309 35.58746582 -45.7722168 36.11547852 C-51.01591163 38.55775028 -51.01591163 38.55775028 -56.19555664 41.13110352 C-59.38175298 42.66535771 -62.55525779 42.55059404 -66 42 C-68.5 40.5 -68.5 40.5 -70 38 C-70.77403846 32.58173077 -70.77403846 32.58173077 -70 30 C-66.21135559 25.30119296 -61.79761384 23.08608855 -56.4375 20.625 C-55.5606958 20.21652832 -54.6838916 19.80805664 -53.78051758 19.38720703 C-45.12341282 15.41499599 -36.37829686 11.63239719 -27.61233521 7.90740967 C-26.00409066 7.22267562 -24.3976751 6.53362877 -22.79318237 5.84014893 C-20.50739411 4.85519962 -18.2141591 3.89009413 -15.91796875 2.9296875 C-14.89857208 2.485112 -14.89857208 2.485112 -13.85858154 2.03155518 C-9.03535829 0.04933731 -5.218081 -0.39456584 0 0 Z " fill="#000000" transform="translate(86,338)"/>
<path d="M0 0 C4.92155149 1.61754073 9.63570233 3.67198583 14.375 5.75 C15.74497144 6.33990968 17.11525572 6.92909334 18.48583984 7.51757812 C21.98427163 9.02639864 25.47268308 10.55692869 28.95727539 12.09741211 C30.93812966 12.97266229 32.92100696 13.84317643 34.90429688 14.71289062 C38.48731345 16.28778062 42.05766532 17.889869 45.625 19.5 C46.70185059 19.97920898 47.77870117 20.45841797 48.88818359 20.95214844 C58.49630714 25.37092399 58.49630714 25.37092399 62 30 C62.90738141 33.02648335 62.46433133 34.7496807 62 38 C60.5 40.5 60.5 40.5 58 42 C50.34090428 42.95738696 45.20323824 40.0894656 38.5 36.625 C29.79676143 32.28146983 21.0601377 28.19849371 12.0625 24.5 C11.09957031 24.10377441 10.13664062 23.70754883 9.14453125 23.29931641 C3.69606363 21.06845795 3.69606363 21.06845795 -1.80517578 18.97265625 C-2.69575684 18.64136719 -3.58633789 18.31007813 -4.50390625 17.96875 C-5.29740479 17.68451172 -6.09090332 17.40027344 -6.90844727 17.10742188 C-9.41332846 15.78115351 -10.5126003 14.38963118 -12 12 C-12.84933097 8.08236526 -12.56202508 4.93670847 -10.5 1.5 C-6.92699747 -0.64380152 -4.01004332 -0.63069112 0 0 Z " fill="#000000" transform="translate(434,338)"/>
</svg>
