<?xml version="1.0" encoding="UTF-8"?>
<svg version="1.1" xmlns="http://www.w3.org/2000/svg" width="512" height="512">
<path d="M0 0 C1.00305176 0.20898926 2.00610352 0.41797852 3.03955078 0.63330078 C23.51852644 5.04359801 44.336841 11.36618311 63 21 C63.03738281 19.75863281 63.07476562 18.51726562 63.11328125 17.23828125 C63.1789595 15.59632489 63.2454062 13.95439913 63.3125 12.3125 C63.33505859 11.49587891 63.35761719 10.67925781 63.38085938 9.83789062 C63.64520149 3.90220866 64.68894766 0.31105234 69 -4 C73.29612488 -4.71325625 76.88903475 -4.77767567 80.5 -2.25 C83.24126856 1.86190285 83.1197786 5.64870808 83.09765625 10.515625 C83.09443359 11.76601562 83.09121094 13.01640625 83.08789062 14.3046875 C83.07951172 15.60664062 83.07113281 16.90859375 83.0625 18.25 C83.05798828 19.56742188 83.05347656 20.88484375 83.04882812 22.2421875 C83.03704316 25.49483741 83.02059011 28.74739584 83 32 C83.90000732 32.28053223 84.80001465 32.56106445 85.72729492 32.85009766 C88.53507324 33.83664267 90.8217805 34.88473877 93.36328125 36.3984375 C94.15919678 36.87168457 94.9551123 37.34493164 95.77514648 37.83251953 C97.03113647 38.59604736 97.03113647 38.59604736 98.3125 39.375 C99.19043213 39.90593262 100.06836426 40.43686523 100.97290039 40.98388672 C117.31992064 50.98937778 132.71532832 62.56669669 147.4140625 74.8515625 C149.13022058 76.2773736 150.87549362 77.66888745 152.6484375 79.0234375 C156.50566607 82.10191961 159.46120636 84.52741405 160.5 89.5 C160.50608944 93.07450048 159.67441873 95.04924745 157.4375 97.8125 C155.99656814 99.24777004 154.51086208 100.63853736 153 102 C152.03707031 102.88300781 151.07414062 103.76601562 150.08203125 104.67578125 C137.57105497 115.8742853 123.82588052 125.60151078 109.8125 134.8125 C108.98758057 135.37179199 108.16266113 135.93108398 107.31274414 136.50732422 C102.6903033 139.56518334 98.56244836 141.76835633 93.14257812 143.03027344 C89.43746333 144.6716424 86.54620864 146.83226351 84 150 C83.00279227 152.79987141 82.90263949 155.43108545 82.86328125 158.38671875 C82.80888382 159.56914154 82.80888382 159.56914154 82.75338745 160.77545166 C82.50537875 167.236499 82.6241278 173.71898945 82.97090149 180.17485046 C83.19604461 185.19211173 82.70327478 188.74377805 79.65234375 192.78515625 C76.93159758 194.78551573 74.42972722 194.46570251 71.16015625 194.359375 C69 194 69 194 66.5 192.1875 C63.88980433 188.38096465 63.88122921 185.29817724 63.90234375 180.80078125 C63.90556641 179.59228516 63.90878906 178.38378906 63.91210938 177.13867188 C63.92048828 175.87603516 63.92886719 174.61339844 63.9375 173.3125 C63.94201172 172.03826172 63.94652344 170.76402344 63.95117188 169.45117188 C63.96297127 166.30073436 63.97943403 163.15039051 64 160 C63.18269409 160.38369751 63.18269409 160.38369751 62.34887695 160.77514648 C0.1911459 189.63294509 -67.21300149 193.90155103 -132 171 C-140.12074414 167.94696963 -148.07768524 164.53176362 -156 161 C-156.90492188 160.59910156 -157.80984375 160.19820312 -158.7421875 159.78515625 C-188.71296272 146.38180369 -216.58662837 127.8856511 -241.625 106.6875 C-242.18098877 106.22013428 -242.73697754 105.75276855 -243.30981445 105.27124023 C-253.41168105 96.55298038 -253.41168105 96.55298038 -254.50561523 91.8059082 C-254.74552778 87.67440806 -253.40214255 85.46651304 -250.73046875 82.3671875 C-247.65901885 79.3699948 -244.34666121 76.68107349 -241 74 C-240.45617676 73.55398437 -239.91235352 73.10796875 -239.35205078 72.6484375 C-235.30836598 69.33302797 -231.1775737 66.14447811 -227 63 C-226.32727051 62.49210937 -225.65454102 61.98421875 -224.96142578 61.4609375 C-184.85596572 31.37026199 -138.54138048 8.19265723 -89 -1 C-88.19981445 -1.16081055 -87.39962891 -1.32162109 -86.57519531 -1.48730469 C-58.71761538 -6.9595308 -27.67523424 -5.82425104 0 0 Z M-99 34 C-99.68191406 34.59039062 -100.36382812 35.18078125 -101.06640625 35.7890625 C-114.69263952 48.32199721 -123.17945998 67.55333417 -124.15625 85.94140625 C-124.55059033 93.34514591 -124.55059033 93.34514591 -127.1875 97.1875 C-130.5747155 99.37037221 -132.05198625 99.82250286 -136 99 C-138.875 97.375 -138.875 97.375 -141 94 C-143.7327764 74.94790795 -136.16002131 53.85251551 -126 38 C-123.94868633 35.2649151 -121.83553393 32.61373087 -119.63671875 29.99609375 C-117.95609984 28.09661578 -117.95609984 28.09661578 -117 26 C-122.7385793 26.621915 -127.65669031 28.67777925 -132.9375 30.875 C-133.90042969 31.27428711 -134.86335938 31.67357422 -135.85546875 32.08496094 C-167.01429582 45.17207192 -195.50154204 62.03579813 -222 83 C-223.7698454 84.37627139 -225.5405713 85.75141186 -227.3125 87.125 C-228.54195687 88.08296101 -229.77125097 89.04113125 -231 90 C-204.23846411 117.24027535 -167.32202694 137.24608042 -132 151 C-130.93604004 151.41451416 -130.93604004 151.41451416 -129.85058594 151.83740234 C-123.99046099 154.1134099 -123.99046099 154.1134099 -118 156 C-117.34 155.67 -116.68 155.34 -116 155 C-115.64562795 152.70779595 -115.55663389 150.44461018 -115.44140625 148.12890625 C-115 146 -115 146 -112 144 C-106.96920725 143.41732287 -104.99885919 143.35997715 -100.68359375 146.125 C-99.58888685 147.06882795 -98.50729295 148.02802395 -97.4375 149 C-84.28255454 160.05558111 -69.32800617 166.82521992 -52 168 C-51.29488281 168.0515625 -50.58976563 168.103125 -49.86328125 168.15625 C-29.35880638 168.96965066 -10.07187911 160.50723499 5.3359375 147.46484375 C20.25292037 133.66335374 29.00535353 114.83247871 30.203125 94.5625 C30.50217483 71.83471294 22.89925075 52.33491706 7.3125 35.75 C-9.1255865 20.12367086 -29.45560109 13.16714791 -51.8984375 13.6953125 C-69.49265227 14.49116296 -86.07659386 22.17496653 -99 34 Z M23 26 C23.35191406 26.44988281 23.70382812 26.89976562 24.06640625 27.36328125 C41.93567832 50.64465661 50.38391916 76.71435789 46.5390625 106.2109375 C43.32403398 123.95033016 35.80441042 140.34920552 24 154 C27.43820104 155.14606701 28.06024038 154.86846595 31.32421875 153.62890625 C32.18982422 153.30083984 33.05542969 152.97277344 33.94726562 152.63476562 C35.30368164 152.10399414 35.30368164 152.10399414 36.6875 151.5625 C37.96850586 151.08393555 37.96850586 151.08393555 39.27539062 150.59570312 C47.89505906 147.27754004 55.62424907 143.18787546 64 139 C64 106.99 64 74.98 64 42 C45.04444299 31.81292154 45.04444299 31.81292154 23 26 Z M83 53 C83 78.08 83 103.16 83 129 C91.35945808 124.22316681 99.29664906 119.67670302 107.0625 114.125 C108.33420044 113.22491211 108.33420044 113.22491211 109.6315918 112.30664062 C119.06585814 105.59257431 128.31733255 98.67305496 137 91 C126.7890233 80.31224618 114.19205423 71.91923542 101.875 63.875 C100.91609863 63.24803223 99.95719727 62.62106445 98.96923828 61.97509766 C93.71637785 58.5942526 88.64658275 55.82329137 83 53 Z " fill="#000000" transform="translate(303,105)"/>
<path d="M0 0 C14.63038277 11.03947536 22.34490965 26.05241249 25 44 C26.56520452 59.60916288 21.54754052 75.07895529 12.1328125 87.39453125 C2.67197801 98.95199756 -10.043295 107.4204439 -25 110 C-43.0620293 111.34279853 -58.95576594 109.37363297 -73.66015625 97.9296875 C-86.65210051 86.68175989 -95.47583349 72.37549823 -97 55 C-97.57839482 46.39461367 -97.75396548 34.57467048 -92.0703125 27.6484375 C-89.3072606 25.44842259 -87.52392598 25.07047852 -84 25 C-79.5961599 26.34811432 -77.8196015 28.02377943 -75.6875 31.9375 C-73.2935903 36.09615083 -70.80005219 37.77292485 -66.3359375 39.44140625 C-61.25118687 40.65732488 -57.47918828 39.71114821 -52.75 37.4375 C-48.71550035 33.86146622 -46.22069693 30.18126555 -45.83984375 24.69140625 C-46.1981447 19.50915107 -47.5469289 15.98431281 -51 12 C-53.57825635 9.86315719 -56.2614337 7.92388983 -59 6 C-60.56941198 4.43058802 -60.2449847 2.85865006 -60.3125 0.6875 C-60.36857422 -0.48232422 -60.36857422 -0.48232422 -60.42578125 -1.67578125 C-59.83051523 -4.92516917 -58.58861055 -5.99382682 -56 -8 C-37.27971315 -15.23959145 -16.31864607 -10.73762668 0 0 Z M-30 8 C-29.855625 8.57105469 -29.71125 9.14210937 -29.5625 9.73046875 C-26.60869697 22.63284448 -27.37335238 32.7039422 -33.8125 44.25 C-39.4019502 51.2767374 -45.89908822 55.12279637 -54.4375 57.75 C-62.89268074 58.57489568 -69.89821436 57.58764256 -78 55 C-76.98147287 65.12080758 -72.02561477 75.34342288 -64.44921875 82.25 C-53.09796567 90.36062421 -41.78896903 93.24337878 -28 92 C-16.45303327 89.51754401 -6.81123711 82.54166767 0 73 C6.07552134 61.7384257 7.76870904 50.36176567 5.38671875 37.75390625 C1.68925785 26.53121656 -5.71807898 17.69841406 -16 12 C-20.79351822 9.68588776 -24.63377773 8 -30 8 Z " fill="#000000" transform="translate(292,146)"/>
<path d="M0 0 C0.74503784 -0.00671722 1.49007568 -0.01343445 2.25769043 -0.02035522 C4.72207292 -0.03936282 7.18618352 -0.04326065 9.65063477 -0.04541016 C11.36312472 -0.05183574 13.07561357 -0.05856392 14.7881012 -0.06558228 C18.37845404 -0.07756163 21.96871061 -0.08126238 25.55908203 -0.08007812 C30.16057299 -0.0798748 34.76144728 -0.10718782 39.36279202 -0.14162254 C42.89983457 -0.16385476 46.4367278 -0.16791682 49.97383308 -0.16685867 C51.67032054 -0.16921977 53.36681179 -0.17807187 55.06323051 -0.19352341 C57.43582296 -0.21311156 59.80707363 -0.2073749 62.1796875 -0.1953125 C62.88060013 -0.20655151 63.58151276 -0.21779053 64.30366516 -0.22937012 C67.68698368 -0.1856409 69.37182717 0.0665169 72.05921936 2.19589233 C74.96270757 6.00813172 74.79570135 8.54308245 74.83154297 13.32299805 C74.83811417 14.04677643 74.84468536 14.77055481 74.85145569 15.51626587 C74.87119832 17.91628112 74.88285351 20.31623377 74.89282227 22.71630859 C74.89689779 23.53567587 74.90097332 24.35504314 74.90517235 25.19923973 C74.92603745 29.53622562 74.9403371 33.87317984 74.94970703 38.21020508 C74.96077105 42.68940676 74.99516923 47.16811159 75.03487873 51.64713764 C75.06102762 55.09155703 75.06939732 58.53585774 75.07298851 61.98036766 C75.07785916 63.63138369 75.08948683 65.28239425 75.1080265 66.93331337 C75.13238175 69.24589995 75.13146019 71.55719741 75.12451172 73.86987305 C75.13037796 75.18510452 75.1362442 76.500336 75.14228821 77.85542297 C74.57393419 81.85822481 73.52842107 83.49577119 70.65454102 86.29052734 C67.15510864 87.4570048 64.3857989 87.43188097 60.69213867 87.45166016 C59.63551277 87.45910751 59.63551277 87.45910751 58.55754089 87.46670532 C56.22788515 87.48130675 53.89829749 87.48812537 51.56860352 87.49365234 C49.94819131 87.49940523 48.32777912 87.50516295 46.70736694 87.51092529 C43.30954674 87.52142937 39.91175017 87.52727599 36.51391602 87.53076172 C32.16374554 87.53624679 27.81388801 87.56027741 23.46381569 87.58873367 C20.11633394 87.60737262 16.76892742 87.61256631 13.42139816 87.6140976 C11.81784732 87.61712156 10.21429773 87.62514149 8.61079788 87.63828278 C6.36553487 87.65537084 4.12103439 87.65345675 1.87573242 87.64697266 C0.59904694 87.65061829 -0.67763855 87.65426392 -1.99301147 87.65802002 C-5.62422768 87.25996894 -7.46547894 86.49683943 -10.34545898 84.29052734 C-12.83934652 80.54969604 -12.59883174 78.60021961 -12.60424805 74.12866211 C-12.60775269 73.40313141 -12.61125732 72.67760071 -12.61486816 71.93008423 C-12.62367389 69.53060348 -12.6178399 67.13141738 -12.61108398 64.73193359 C-12.61243112 63.0642847 -12.61437205 61.39663619 -12.61688232 59.72898865 C-12.61983213 56.23278059 -12.6155411 52.7366747 -12.60620117 49.24047852 C-12.59481553 44.76022728 -12.60136133 40.28021589 -12.6133461 35.79997349 C-12.62057611 32.35558773 -12.61827137 28.91125874 -12.61309052 25.46687126 C-12.61175672 23.81506255 -12.6133923 22.16324868 -12.61804962 20.511446 C-12.62313262 18.20142105 -12.61537948 15.89178326 -12.60424805 13.58178711 C-12.60265686 12.26735123 -12.60106567 10.95291534 -12.59942627 9.59864807 C-12.36078117 6.49011063 -12.11519627 4.81264043 -10.34545898 2.29052734 C-6.751016 -0.10576798 -4.15203706 -0.00535367 0 0 Z M5.65454102 18.29052734 C5.65454102 35.12052734 5.65454102 51.95052734 5.65454102 69.29052734 C22.48454102 69.29052734 39.31454102 69.29052734 56.65454102 69.29052734 C56.65454102 52.46052734 56.65454102 35.63052734 56.65454102 18.29052734 C39.82454102 18.29052734 22.99454102 18.29052734 5.65454102 18.29052734 Z " fill="#000000" transform="translate(61.345458984375,358.70947265625)"/>
<path d="M0 0 C2.69990662 1.79993774 4.5418865 3.083773 6 6 C6.11357815 8.44491532 6.16779504 10.86203025 6.17700195 13.30786133 C6.18357315 14.06090042 6.19014435 14.81393951 6.19691467 15.58979797 C6.21665982 18.08721003 6.22831299 20.58456193 6.23828125 23.08203125 C6.24235678 23.93449621 6.2464323 24.78696117 6.25063133 25.66525841 C6.27149737 30.17730849 6.2857967 34.68932811 6.29516602 39.20141602 C6.306231 43.86221139 6.34063014 48.52252941 6.38033772 53.18315601 C6.40648207 56.76654448 6.4148559 60.34981884 6.41844749 63.9332943 C6.4233192 65.65129508 6.43494986 67.36929056 6.45348549 69.08719826 C6.47783111 71.49316862 6.47692079 73.89789927 6.4699707 76.30395508 C6.48278076 77.01219421 6.49559082 77.72043335 6.50878906 78.45013428 C6.45850182 83.23194384 5.3813787 85.64142004 2 89 C-0.98174841 90.49087421 -4.03700742 90.16468939 -7.30786133 90.17700195 C-8.43741997 90.18685875 -8.43741997 90.18685875 -9.58979797 90.19691467 C-12.08721003 90.21665982 -14.58456193 90.22831299 -17.08203125 90.23828125 C-17.93449621 90.24235678 -18.78696117 90.2464323 -19.66525841 90.25063133 C-24.17730849 90.27149737 -28.68932811 90.2857967 -33.20141602 90.29516602 C-37.86221139 90.306231 -42.52252941 90.34063014 -47.18315601 90.38033772 C-50.76654448 90.40648207 -54.34981884 90.4148559 -57.9332943 90.41844749 C-59.65129508 90.4233192 -61.36929056 90.43494986 -63.08719826 90.45348549 C-65.49316862 90.47783111 -67.89789927 90.47692079 -70.30395508 90.4699707 C-71.01219421 90.48278076 -71.72043335 90.49559082 -72.45013428 90.50878906 C-77.22964376 90.45852601 -79.64456913 89.38302808 -83 86 C-83.8828125 84.0703125 -83.8828125 84.0703125 -84.125 82.125 C-84.23070312 81.48820312 -84.33640625 80.85140625 -84.4453125 80.1953125 C-83.88600858 77.43804231 -82.87427591 75.42475907 -81.03039551 73.29849243 C-76.20314739 70.21133768 -69.41998877 71.29196505 -63.85546875 71.4140625 C-62.36047572 71.42526062 -60.86546059 71.43379791 -59.37043762 71.43978882 C-55.44567502 71.46263969 -51.52225609 71.52152733 -47.59802246 71.5880127 C-43.58962175 71.64951801 -39.58100274 71.67682122 -35.57226562 71.70703125 C-27.71422881 71.77127711 -19.8572818 71.87360787 -12 72 C-12.01332367 71.17172195 -12.02664734 70.34344391 -12.04037476 69.49006653 C-12.16068628 61.67748347 -12.25199167 53.86521227 -12.31087303 46.05191517 C-12.34216304 42.03510273 -12.38459034 38.01905681 -12.45263672 34.00268555 C-12.5179169 30.12524088 -12.55372358 26.24853252 -12.56926346 22.37058067 C-12.58033469 20.89252824 -12.60195561 19.41451532 -12.63438034 17.93677711 C-12.87736953 6.40203863 -12.87736953 6.40203863 -10.73199463 2.97372437 C-7.3607157 0.01307585 -4.35429496 -0.83380116 0 0 Z " fill="#000000" transform="translate(457,244)"/>
<path d="M0 0 C3.1046135 1.54608316 4.2255119 2.14027252 6 5 C6.86649305 10.04104226 6.69768117 15.05187888 6.5859375 20.14453125 C6.57473938 21.63952428 6.56620209 23.13453941 6.56021118 24.62956238 C6.53736031 28.55432498 6.47847267 32.47774391 6.4119873 36.40197754 C6.35048199 40.41037825 6.32317878 44.41899726 6.29296875 48.42773438 C6.22872289 56.28577119 6.12639213 64.1427182 6 72 C7.24241707 71.9800145 7.24241707 71.9800145 8.50993347 71.95962524 C16.32251653 71.83931372 24.13478773 71.74800833 31.94808483 71.68912697 C35.96489727 71.65783696 39.98094319 71.61540966 43.99731445 71.54736328 C47.87475912 71.4820831 51.75146748 71.44627642 55.62941933 71.43073654 C57.10747176 71.41966531 58.58548468 71.39804439 60.06322289 71.36561966 C71.62713488 71.1220159 71.62713488 71.1220159 75.03039551 73.29849243 C76.87427591 75.42475907 77.88600858 77.43804231 78.4453125 80.1953125 C78.33960938 80.83210938 78.23390625 81.46890625 78.125 82.125 C78.04507813 82.76695312 77.96515625 83.40890625 77.8828125 84.0703125 C76.52300316 87.04263912 74.72395709 88.21834731 72 90 C69.3109322 90.38706279 67.03441637 90.54845525 64.3515625 90.51757812 C63.59808533 90.5245874 62.84460815 90.53159668 62.06829834 90.53881836 C59.58681989 90.55637048 57.1064893 90.54478631 54.625 90.53125 C52.89534283 90.53394573 51.16568715 90.53782884 49.43603516 90.54284668 C45.81463158 90.54873793 42.19362319 90.54019101 38.57226562 90.52148438 C33.9349929 90.49869479 29.29864623 90.51181991 24.66140747 90.53577423 C21.09083097 90.55024245 17.5204733 90.54562158 13.94989014 90.53526306 C12.24029429 90.53259859 10.53067845 90.5358557 8.82110596 90.54518127 C6.42968276 90.55536409 4.03974995 90.53982349 1.6484375 90.51757812 C0.9449115 90.52567505 0.2413855 90.53377197 -0.48345947 90.54211426 C-5.24227814 90.46028485 -7.65355327 89.35957696 -11 86 C-12.49087421 83.01825159 -12.16468939 79.96299258 -12.17700195 76.69213867 C-12.18357315 75.93909958 -12.19014435 75.18606049 -12.19691467 74.41020203 C-12.21665982 71.91278997 -12.22831299 69.41543807 -12.23828125 66.91796875 C-12.24235678 66.06550379 -12.2464323 65.21303883 -12.25063133 64.33474159 C-12.27149737 59.82269151 -12.2857967 55.31067189 -12.29516602 50.79858398 C-12.306231 46.13778861 -12.34063014 41.47747059 -12.38033772 36.81684399 C-12.40648207 33.23345552 -12.4148559 29.65018116 -12.41844749 26.0667057 C-12.4233192 24.34870492 -12.43494986 22.63070944 -12.45348549 20.91280174 C-12.47783111 18.50683138 -12.47692079 16.10210073 -12.4699707 13.69604492 C-12.48278076 12.98780579 -12.49559082 12.27956665 -12.50878906 11.54986572 C-12.45850182 6.76805616 -11.3813787 4.35857996 -8 1 C-5.09704195 -0.45147903 -3.22738221 -0.37239025 0 0 Z " fill="#000000" transform="translate(61,244)"/>
<path d="M0 0 C0.73382401 -0.00511093 1.46764801 -0.01022186 2.22370911 -0.01548767 C4.64539789 -0.02936853 7.06680159 -0.02842808 9.48852539 -0.02612305 C11.17477016 -0.03001078 12.86101395 -0.03434561 14.54725647 -0.03910828 C18.08036474 -0.04656722 21.61337308 -0.04628156 25.14648438 -0.04101562 C29.67040357 -0.03522107 34.19391335 -0.05215305 38.71776485 -0.0753603 C42.19993983 -0.09010379 45.68201634 -0.09096851 49.164217 -0.08785057 C50.83195367 -0.08836346 52.4996959 -0.09359522 54.16740227 -0.10366249 C56.50119382 -0.1160219 58.8341896 -0.1092388 61.16796875 -0.09765625 C62.1975621 -0.10912186 62.1975621 -0.10912186 63.24795532 -0.12081909 C67.54869972 -0.07372534 70.23407336 0.64067809 73.64868164 3.2746582 C76.0682169 6.90396109 75.91742806 8.63820256 75.95507812 12.96166992 C75.96340164 13.63682648 75.97172516 14.31198303 75.9803009 15.00759888 C76.00439921 17.23990646 76.01317269 19.47192183 76.01977539 21.7043457 C76.02874204 23.25749804 76.03786389 24.81064949 76.0471344 26.36380005 C76.06362658 29.62040302 76.07132488 32.87690317 76.07421875 36.13354492 C76.07960223 40.30239016 76.11727842 44.47026623 76.16296291 48.63883781 C76.19273677 51.84737661 76.19994236 55.05568215 76.2009449 58.26434708 C76.2051468 59.80093957 76.2175801 61.33753277 76.23846245 62.87398911 C76.26538613 65.02633213 76.26055151 67.17643079 76.24804688 69.32885742 C76.25311752 70.55224823 76.25818817 71.77563904 76.26341248 73.03610229 C75.47764257 77.17573484 73.87114331 78.65411814 70.64868164 81.2746582 C68.58618164 81.9387207 68.58618164 81.9387207 66.64868164 81.8996582 C65.68961914 81.91899414 65.68961914 81.91899414 64.71118164 81.9387207 C61.37034431 80.86307232 59.35152904 79.29041454 57.64868164 76.2746582 C56.93384019 71.88370943 57.06824715 67.53710269 57.16040039 63.09887695 C57.16747513 61.81858109 57.17454987 60.53828522 57.18183899 59.2191925 C57.2008645 55.82720508 57.24992326 52.43630046 57.30535889 49.04473877 C57.35664965 45.57920986 57.37937375 42.11350473 57.40454102 38.64770508 C57.45964754 31.85622134 57.54330518 25.06553791 57.64868164 18.2746582 C56.40293365 18.28798187 56.40293365 18.28798187 55.13201904 18.30157471 C47.30433365 18.3817317 39.47678614 18.44262811 31.64878464 18.48190689 C27.62432087 18.50277953 23.60019629 18.53109055 19.57592773 18.57641602 C15.69204629 18.61988641 11.80849102 18.64379774 7.92438507 18.65416718 C6.44278071 18.66155651 4.96119415 18.67598638 3.4797287 18.69757843 C1.40381843 18.72663032 -0.67074523 18.73061377 -2.74682617 18.72875977 C-3.92819153 18.73764221 -5.10955688 18.74652466 -6.32672119 18.75567627 C-9.99753106 18.1718875 -11.14027569 17.21202819 -13.35131836 14.2746582 C-14.4156694 10.37203772 -14.74871421 8.21585891 -13.16381836 4.4621582 C-9.46351466 -0.00372557 -5.5190523 -0.01986142 0 0 Z " fill="#000000" transform="translate(387.351318359375,65.725341796875)"/>
<path d="M0 0 C0.73367798 -0.0049649 1.46735596 -0.00992981 2.2232666 -0.01504517 C4.65031879 -0.02964974 7.07730562 -0.03646573 9.50439453 -0.04199219 C11.19206748 -0.04774479 12.87974041 -0.05350251 14.56741333 -0.05926514 C18.10646875 -0.0697701 21.64550149 -0.07561615 25.18457031 -0.07910156 C29.71633775 -0.08458698 34.24780484 -0.10861802 38.77947807 -0.13707352 C42.26592888 -0.15570914 45.75230745 -0.16090597 49.23880386 -0.16243744 C50.90934009 -0.16546213 52.5798751 -0.17348447 54.2503624 -0.18662262 C56.58901499 -0.20370369 58.92693509 -0.20179821 61.265625 -0.1953125 C61.95359161 -0.20452728 62.64155823 -0.21374207 63.35037231 -0.22323608 C67.6585862 -0.18586444 70.3112956 0.57450353 73.76220703 3.16113281 C75.86322298 5.83515311 75.76067679 7.20397966 75.63720703 10.66113281 C74.65407482 14.59366166 73.9331715 15.72769356 70.76220703 18.16113281 C67.73760986 18.64215088 67.73760986 18.64215088 64.15771484 18.61523438 C63.50364151 18.61581848 62.84956818 18.61640259 62.17567444 18.61700439 C60.02168009 18.6142258 57.86908347 18.58314829 55.71533203 18.55175781 C54.21890011 18.54429453 52.72245839 18.53860201 51.22601318 18.53460693 C47.29336413 18.5193572 43.36130896 18.48008193 39.42889404 18.43579102 C35.41377801 18.39482355 31.39856572 18.37659282 27.38330078 18.35644531 C19.50933077 18.3135863 11.63584284 18.24534384 3.76220703 18.16113281 C3.77331009 18.87665817 3.78441315 19.59218353 3.79585266 20.32939148 C3.89616229 27.082423 3.97222586 33.83524574 4.02126789 40.58885479 C4.0473293 44.0607813 4.0826609 47.53209074 4.1394043 51.00366211 C4.20427537 54.9976178 4.22841565 58.99092839 4.25048828 62.98535156 C4.27629471 64.22822433 4.30210114 65.47109711 4.32868958 66.75163269 C4.33181375 76.35463832 4.33181375 76.35463832 1.3605957 79.44311523 C-1.12200821 81.08457758 -2.30717205 81.84521791 -5.23779297 81.78613281 C-6.19685547 81.80546875 -6.19685547 81.80546875 -7.17529297 81.82519531 C-10.48340478 80.76008355 -12.0365208 78.80081453 -14.23779297 76.16113281 C-14.86598206 72.93603516 -14.86598206 72.93603516 -14.86889648 69.24707031 C-14.87605179 68.5716217 -14.88320709 67.8961731 -14.89057922 67.20025635 C-14.90742219 64.97818364 -14.88809336 62.75814137 -14.86669922 60.53613281 C-14.86752834 58.98583815 -14.86998937 57.43554358 -14.87400818 55.88525391 C-14.87686312 52.64035497 -14.86219586 49.39614743 -14.8347168 46.15136719 C-14.80063353 41.99829549 -14.80665454 37.84645972 -14.82537937 33.69332886 C-14.8359633 30.49330398 -14.8269991 27.29356519 -14.81199455 24.09356689 C-14.80682244 22.56261038 -14.80728277 21.03162386 -14.81353951 19.50067139 C-14.81900901 17.3581958 -14.79856567 15.21747117 -14.77124023 13.07519531 C-14.76504166 11.85783691 -14.75884308 10.64047852 -14.75245667 9.38623047 C-14.13852132 5.53905519 -12.9859455 3.87893741 -10.23779297 1.16113281 C-6.75449011 0.00003186 -3.62370824 0.00585362 0 0 Z " fill="#000000" transform="translate(63.23779296875,65.8388671875)"/>
<path d="M0 0 C1.07535507 -0.00852997 2.15071014 -0.01705994 3.25865173 -0.02584839 C4.43847626 -0.02494202 5.61830078 -0.02403564 6.83387756 -0.02310181 C8.0763475 -0.02981903 9.31881744 -0.03653625 10.59893799 -0.04345703 C14.00808573 -0.0592175 17.41698989 -0.06581304 20.82615733 -0.0670886 C23.67164247 -0.06898744 26.51710422 -0.07634469 29.36258036 -0.08343279 C36.07535554 -0.0997201 42.78807708 -0.1046014 49.50086975 -0.10317993 C56.42706079 -0.10197803 63.35294045 -0.12308847 70.27905267 -0.15466726 C76.22478895 -0.18081076 82.1704234 -0.19154806 88.11621672 -0.19026911 C91.6677476 -0.18975895 95.21900173 -0.1954716 98.77047539 -0.21662521 C102.73053559 -0.23956852 106.69016791 -0.23049843 110.65028381 -0.21841431 C112.41698425 -0.23527283 112.41698425 -0.23527283 114.21937561 -0.25247192 C115.29755051 -0.24408295 116.3757254 -0.23569397 117.48657227 -0.22705078 C118.42290465 -0.22814032 119.35923704 -0.22922985 120.32394314 -0.2303524 C123.5576345 0.41796307 124.73610224 1.76093747 126.80677795 4.26742554 C128.23340014 7.12066991 128.11711663 9.10197103 127.80677795 12.26742554 C126.00684021 14.96733215 124.72300495 16.80931204 121.80677795 18.26742554 C120.13303731 18.36882373 118.45529492 18.40687656 116.77850342 18.41459656 C115.71438232 18.42175186 114.65026123 18.42890717 113.55389404 18.4362793 C112.38139603 18.4389682 111.20889801 18.4416571 110.00086975 18.44442749 C108.7699057 18.45099869 107.53894165 18.45756989 106.27067566 18.46434021 C102.88832222 18.48069615 99.50603138 18.49230262 96.12365317 18.50054574 C94.01063336 18.50569549 91.89761793 18.51177123 89.78460121 18.51805687 C83.17394009 18.5371098 76.56329016 18.5513406 69.95260686 18.55966884 C62.3207877 18.56944213 54.68925852 18.59576329 47.05754155 18.63616973 C41.15938021 18.6663265 35.26130201 18.68113728 29.36306506 18.68444985 C25.83997254 18.6868009 22.31718976 18.69576772 18.79417992 18.72091103 C14.86298202 18.74851402 10.93216587 18.74436191 7.00086975 18.73739624 C5.83444443 18.7502063 4.6680191 18.76301636 3.46624756 18.7762146 C-4.38569009 18.72538166 -4.38569009 18.72538166 -8.39285278 16.45289612 C-10.91957831 13.38570072 -11.19322205 11.2087927 -11.19322205 7.26742554 C-8.74896818 1.76785434 -5.90886266 0.02115984 0 0 Z " fill="#000000" transform="translate(335.19322204589844,358.7325744628906)"/>
<path d="M0 0 C1.62771584 -0.01475121 1.62771584 -0.01475121 3.28831482 -0.02980042 C4.47389481 -0.02013245 5.65947479 -0.01046448 6.88098145 -0.00050354 C8.13335098 -0.00590652 9.38572052 -0.01130951 10.67604065 -0.01687622 C14.1081305 -0.02724202 17.53925666 -0.01965967 20.97126198 -0.00316501 C24.56352758 0.01068935 28.1557642 0.00422498 31.74804688 0.0007019 C37.78055901 -0.00199993 43.81287214 0.01147288 49.84533691 0.03465271 C56.81866563 0.06126243 63.79166162 0.06300953 70.76502371 0.05126435 C77.47450102 0.0404832 84.18385804 0.04667623 90.89332581 0.06081963 C93.74812159 0.06657656 96.60282927 0.06649908 99.45762634 0.06175423 C103.44392476 0.05609368 107.42989056 0.07530723 111.4161377 0.09715271 C112.60171768 0.09265106 113.78729767 0.08814941 115.00880432 0.08351135 C116.09394821 0.09341599 117.1790921 0.10332062 118.29711914 0.11352539 C119.23952705 0.11595529 120.18193497 0.11838518 121.1529007 0.12088871 C124.11067778 0.57162824 125.4825836 1.46964579 127.64855957 3.50120544 C128.72015028 6.48156709 128.89171067 9.35129351 128.64855957 12.50120544 C126.58516744 16.0384491 125.53597392 17.20540066 121.64855957 18.50120544 C119.95978194 18.5973991 118.2674643 18.63613339 116.57595825 18.64164734 C115.5272908 18.64735748 114.47862335 18.65306763 113.3981781 18.65895081 C111.67287621 18.66062759 111.67287621 18.66062759 109.91271973 18.66233826 C108.09531532 18.66978561 108.09531532 18.66978561 106.24119568 18.67738342 C102.91674735 18.68949224 99.59236193 18.69695012 96.26789904 18.70139408 C94.19055313 18.70432631 92.11321273 18.70843138 90.0358696 18.71289825 C83.53519931 18.72656973 77.03454161 18.73623834 70.53385794 18.74010015 C63.03171152 18.7445815 55.52974724 18.76213431 48.0276562 18.79110074 C42.22713715 18.81271932 36.42666934 18.8228045 30.62611043 18.82414126 C27.16233719 18.82518909 23.69873523 18.83109196 20.23500443 18.84896088 C16.371006 18.86850735 12.50723518 18.86415187 8.64318848 18.85765076 C6.92395927 18.87147293 6.92395927 18.87147293 5.16999817 18.88557434 C4.11569107 18.88000519 3.06138397 18.87443604 1.97512817 18.86869812 C1.06184061 18.87016468 0.14855305 18.87163124 -0.7924099 18.87314224 C-4.57275236 18.32369648 -7.36214874 16.76030396 -9.72644043 13.75120544 C-10.66841845 10.36008458 -10.19896242 7.89129341 -9.35144043 4.50120544 C-6.4647518 0.83050937 -4.62476673 0.00102704 0 0 Z " fill="#000000" transform="translate(334.3514404296875,427.49879455566406)"/>
<path d="M0 0 C0.9095343 -0.0087616 1.8190686 -0.01752319 2.75616455 -0.02655029 C5.75720176 -0.04852422 8.75676079 -0.0339985 11.7578125 -0.01708984 C13.84619428 -0.02045855 15.93457415 -0.02531162 18.02294922 -0.03158569 C22.39765101 -0.03895432 26.771842 -0.02825152 31.14648438 -0.00488281 C36.75239723 0.02360458 42.35711323 0.00720061 47.96298218 -0.02274513 C52.27474984 -0.04081815 56.58623402 -0.03505997 60.89801025 -0.02210617 C62.96486554 -0.01877219 65.03174661 -0.02285894 67.09857178 -0.03450394 C69.98828233 -0.04721243 72.87605845 -0.02783536 75.765625 0 C77.04533173 -0.01518173 77.04533173 -0.01518173 78.35089111 -0.03067017 C82.65715733 0.04612753 84.38868288 0.26893667 87.91748047 2.96865845 C89.8828125 5.64697266 89.8828125 5.64697266 90.4453125 9.14697266 C89.80159031 13.15235517 88.72335424 14.80643092 85.8828125 17.64697266 C82.58988547 19.29343617 78.92667958 18.82155972 75.30566406 18.83984375 C74.41768127 18.84802124 73.52969849 18.85619873 72.61480713 18.86462402 C69.66769082 18.88949461 66.72062276 18.90599892 63.7734375 18.92041016 C62.76776482 18.92573383 61.76209213 18.93105751 60.72594452 18.93654251 C55.40226503 18.96328221 50.07860905 18.98265389 44.75488281 18.99707031 C39.25561566 19.01371385 33.7569483 19.05848705 28.25790787 19.10944176 C24.03024609 19.14309861 19.80272688 19.1546461 15.57494354 19.16029739 C13.54794485 19.16701491 11.52095569 19.18224994 9.49408722 19.2061882 C6.65474106 19.23780685 3.81701506 19.23788136 0.97753906 19.23046875 C0.14198486 19.24687408 -0.69356934 19.26327942 -1.55444336 19.28018188 C-5.71841812 19.23574349 -8.33447596 18.89334511 -11.63800049 16.2394104 C-14.1171875 13.64697266 -14.1171875 13.64697266 -14.87890625 11.58447266 C-14.85441406 10.94509766 -14.82992187 10.30572266 -14.8046875 9.64697266 C-14.80855469 9.00759766 -14.81242188 8.36822266 -14.81640625 7.70947266 C-12.30443198 0.29985022 -6.72060275 -0.07972951 0 0 Z " fill="#000000" transform="translate(175.1171875,358.35302734375)"/>
<path d="M0 0 C0.87998154 -0.0049649 1.75996307 -0.00992981 2.66661072 -0.01504517 C5.58064554 -0.02966235 8.49462593 -0.03646778 11.40869141 -0.04199219 C13.43266807 -0.04774366 15.45664471 -0.05350139 17.48062134 -0.05926514 C21.72585301 -0.06977362 25.97106575 -0.0756174 30.21630859 -0.07910156 C35.6560664 -0.08458836 41.09557417 -0.10862108 46.53525352 -0.13707352 C50.71655001 -0.15569586 54.89778618 -0.16090527 59.07912064 -0.16243744 C61.08458449 -0.16546501 63.09004725 -0.17349702 65.09547043 -0.18662262 C67.90108027 -0.20367582 70.70607812 -0.20180471 73.51171875 -0.1953125 C74.33994644 -0.20452728 75.16817413 -0.21374207 76.02149963 -0.22323608 C80.60386611 -0.19001682 83.71066985 0.11230412 87.38525391 3.16113281 C88.93516532 6.80005527 89.66555246 9.0399386 88.69775391 12.91113281 C87.4071811 15.12354334 86.34532751 16.53018133 84.38525391 18.16113281 C81.32512822 18.47318971 78.4662888 18.60171213 75.40332031 18.59692383 C74.48432449 18.60699966 73.56532867 18.6170755 72.6184845 18.62745667 C69.57447206 18.65599978 66.53095441 18.66181652 63.48681641 18.66503906 C61.37315668 18.67467609 59.25949898 18.68476825 57.14584351 18.69529724 C52.71225342 18.71327477 48.27883881 18.71881663 43.84521484 18.71704102 C38.1629661 18.71673616 32.48184211 18.75768685 26.79986 18.80935764 C22.43322581 18.84270988 18.06686374 18.84879893 13.7001152 18.84721184 C11.60531106 18.85075364 9.5105 18.86403282 7.41582108 18.88720894 C4.48507151 18.9165981 1.55676526 18.90798574 -1.37402344 18.88989258 C-2.67246941 18.91518036 -2.67246941 18.91518036 -3.99714661 18.940979 C-9.73420683 18.85095072 -9.73420683 18.85095072 -12.28190994 16.85507011 C-14.17850248 14.66702134 -15.5047325 12.8154845 -15.98974609 9.93066406 C-15.4378361 7.0503838 -14.95279052 4.63746814 -13.23974609 2.22363281 C-9.14018399 -0.4568501 -4.69784784 0.00630984 0 0 Z " fill="#000000" transform="translate(210.61474609375,392.8388671875)"/>
<path d="M0 0 C0.9095343 -0.0087616 1.8190686 -0.01752319 2.75616455 -0.02655029 C5.75720176 -0.04852422 8.75676079 -0.0339985 11.7578125 -0.01708984 C13.84619428 -0.02045855 15.93457415 -0.02531162 18.02294922 -0.03158569 C22.39765101 -0.03895432 26.771842 -0.02825152 31.14648438 -0.00488281 C36.75239723 0.02360458 42.35711323 0.00720061 47.96298218 -0.02274513 C52.27474984 -0.04081815 56.58623402 -0.03505997 60.89801025 -0.02210617 C62.96486554 -0.01877219 65.03174661 -0.02285894 67.09857178 -0.03450394 C69.98828233 -0.04721243 72.87605845 -0.02783536 75.765625 0 C77.04533173 -0.01518173 77.04533173 -0.01518173 78.35089111 -0.03067017 C82.65715733 0.04612753 84.38868288 0.26893667 87.91748047 2.96865845 C89.8828125 5.64697266 89.8828125 5.64697266 90.4453125 9.14697266 C89.79869599 13.17036428 88.78262924 14.83000782 85.8828125 17.64697266 C82.00175426 18.94065873 78.31405523 18.8109029 74.26806641 18.82397461 C72.9480941 18.83383141 72.9480941 18.83383141 71.60145569 18.84388733 C68.68742794 18.86360938 65.77345165 18.87527924 62.859375 18.88525391 C61.8644038 18.88932943 60.8694326 18.89340496 59.84431076 18.89760399 C54.58012856 18.91845802 49.31597238 18.93276379 44.05175781 18.94213867 C38.61192544 18.95321404 33.1725009 18.98762893 27.73281288 19.02731037 C23.55151603 19.05343607 19.37031707 19.06182681 15.18894577 19.06542015 C13.18346776 19.07029497 11.17799437 19.08193435 9.17259598 19.10045815 C6.36684912 19.12476801 3.56216726 19.12389974 0.75634766 19.11694336 C-0.07188004 19.12975342 -0.90010773 19.14256348 -1.75343323 19.15576172 C-5.74242079 19.11970618 -7.65914915 18.93849938 -11.10928345 16.74259949 C-13.70003676 14.03865945 -14.06535464 13.10482957 -14.4921875 9.33447266 C-14.1171875 5.64697266 -14.1171875 5.64697266 -12.16357422 2.9569397 C-8.02377393 -0.18212409 -5.06309221 -0.06006572 0 0 Z " fill="#000000" transform="translate(175.1171875,427.35302734375)"/>
<path d="M0 0 C0.84954254 -0.00570007 1.69908508 -0.01140015 2.57437134 -0.01727295 C4.37150835 -0.02671605 6.16866263 -0.03325419 7.96582031 -0.03710938 C10.70929287 -0.04681391 13.45201577 -0.07784285 16.1953125 -0.109375 C17.94270389 -0.11590551 19.69010063 -0.12115579 21.4375 -0.125 C22.2553598 -0.1373468 23.0732196 -0.1496936 23.91586304 -0.16241455 C28.55225631 -0.14436162 31.59951373 0.17845097 35.3515625 3.203125 C37.69065557 6.7117646 37.76447307 8.07401933 37.3515625 12.203125 C35.08685662 16.83547794 35.08685662 16.83547794 32.3515625 18.203125 C30.98435084 18.31212267 29.61215326 18.36206309 28.24072266 18.38012695 C26.9689769 18.39937981 26.9689769 18.39937981 25.67153931 18.41902161 C24.75383759 18.42640854 23.83613586 18.43379547 22.890625 18.44140625 C21.94851166 18.449478 21.00639832 18.45754974 20.03573608 18.46586609 C18.04011884 18.4797092 16.0444779 18.49043034 14.04882812 18.49829102 C10.99563854 18.51551737 7.94352792 18.5594028 4.890625 18.60351562 C2.95313297 18.61364126 1.01563173 18.62215777 -0.921875 18.62890625 C-2.29235489 18.65516838 -2.29235489 18.65516838 -3.69052124 18.68196106 C-10.00748551 18.6603243 -10.00748551 18.6603243 -13.19384766 16.38745117 C-15.29251403 13.23592918 -15.6484375 10.98078025 -15.6484375 7.203125 C-11.79921152 -0.22038226 -7.71763146 0.0399059 0 0 Z " fill="#000000" transform="translate(339.6484375,392.796875)"/>
<path d="M0 0 C0.99837891 -0.020625 1.99675781 -0.04125 3.02539062 -0.0625 C12.31490315 -0.11201106 12.31490315 -0.11201106 16.1875 3.25 C18.34501534 6.48627302 18.4411352 7.08578838 18.0625 10.75 C17.99804688 11.5234375 17.93359375 12.296875 17.8671875 13.09375 C16.9499275 16.00367828 15.78269334 16.68515841 13.1875 18.25 C9.06580397 18.89831433 4.91732208 18.75945507 0.75 18.75 C-0.38244141 18.77835937 -1.51488281 18.80671875 -2.68164062 18.8359375 C-10.94849965 18.85542332 -10.94849965 18.85542332 -15.0625 15.97265625 C-17.72201574 11.83497217 -17.50506436 10.09795051 -16.8125 5.25 C-12.15294049 -0.80742736 -7.07661876 0.03612824 0 0 Z " fill="#000000" transform="translate(444.8125,392.75)"/>
<path d="M0 0 C2.69990662 1.79993774 4.5418865 3.083773 6 6 C6.48602588 10.29322859 6.46241608 12.32082639 4 15.9375 C0.66411401 18.23092162 -1.09984094 18.75815509 -5.0625 18.48046875 C-8.5685303 17.61102978 -10.01216563 15.91963173 -12 13 C-12.69151325 8.69725091 -12.51557405 6.79054688 -10.125 3.125 C-6.79974618 -0.20025382 -4.65430991 -0.45630489 0 0 Z " fill="#000000" transform="translate(173,393)"/>
<path d="M0 0 C3.06708139 1.80024342 4.58578006 3.0421164 6 6.3125 C6 10.14302236 4.82563998 12.66348556 3 16 C0.63910466 17.87243424 -0.93902191 17.99221556 -3.9375 18.375 C-7.86918629 17.89356903 -9.35937738 16.94240806 -12 14 C-13.14888518 10.05070721 -13.43129396 7.97041141 -11.75 4.1875 C-8.24427712 -0.1946536 -5.40218075 -0.55884628 0 0 Z " fill="#000000" transform="translate(294,359)"/>
<path d="M0 0 C4.63235294 2.26470588 4.63235294 2.26470588 6 5 C6.68571429 11.97142857 6.68571429 11.97142857 4 16 C0.68785252 18.20809832 -1.14990423 18.81013892 -5.0625 18.55078125 C-8.74685029 17.50341554 -10.12308191 15.16729927 -12 12 C-12.73490789 7.99883483 -12.38814018 6.58221026 -10.125 3.1875 C-6.80286756 -0.23234222 -4.70116232 -0.36871861 0 0 Z " fill="#000000" transform="translate(179,219)"/>
<path d="M0 0 C2.4375 1.5625 2.4375 1.5625 4 4 C4.70476018 8.93332128 4.77041398 10.84437903 2 15 C-2.15562097 17.77041398 -4.06667872 17.70476018 -9 17 C-12.34238038 14.85744848 -12.89167954 13.39717502 -13.9375 9.5625 C-14.00779003 5.55596849 -13.53249114 4.05645482 -11 1 C-7.44544736 -1.79286279 -4.2131487 -1.05328717 0 0 Z " fill="#000000" transform="translate(407,394)"/>
</svg>
