<?xml version="1.0" encoding="UTF-8"?>
<svg version="1.1" xmlns="http://www.w3.org/2000/svg" width="512" height="512">
<path d="M0 0 C0.87430664 0.41475586 1.74861328 0.82951172 2.64941406 1.25683594 C30.26141022 14.36735501 55.69060631 31.25048329 79 51 C79.85464844 51.72316406 80.70929688 52.44632812 81.58984375 53.19140625 C92.55084881 62.64195623 92.55084881 62.64195623 93.5 67.625 C92.73020762 72.82109856 89.6589165 75.40106574 86 79 C85.01580078 79.98226562 85.01580078 79.98226562 84.01171875 80.984375 C70.20387455 94.03192938 53.96762247 104.79910161 38 115 C37.40541992 115.38285156 36.81083984 115.76570312 36.19824219 116.16015625 C15.74649132 129.22492669 -6.25564676 139.63703908 -29 148 C-29.79631836 148.29841797 -30.59263672 148.59683594 -31.41308594 148.90429688 C-95.35808563 172.64970961 -163.9587038 165.22594479 -225.0703125 137.24609375 C-255.5238404 123.0449424 -302.4121342 100.77985542 -321 71 C-321.71170465 66.88792867 -321.06873549 64.53387801 -319 61 C-317.32714844 59.30883789 -317.32714844 59.30883789 -315.359375 57.66015625 C-314.64330078 57.05445801 -313.92722656 56.44875977 -313.18945312 55.82470703 C-312.46693359 55.22255371 -311.74441406 54.62040039 -311 54 C-310.36513672 53.45585449 -309.73027344 52.91170898 -309.07617188 52.35107422 C-284.99790855 31.71883972 -258.30906206 15.15981849 -230 1 C-228.87996582 0.43007324 -228.87996582 0.43007324 -227.73730469 -0.15136719 C-200.82315127 -13.80347399 -170.93944344 -22.42263826 -141 -26 C-140.28247559 -26.0928125 -139.56495117 -26.185625 -138.82568359 -26.28125 C-91.29496935 -31.83228232 -42.68696168 -20.71251472 0 0 Z M-171.0703125 15.63671875 C-182.26994619 29.35286932 -190.20116535 44.96193779 -191.15625 62.94140625 C-191.55059033 70.34514591 -191.55059033 70.34514591 -194.1875 74.1875 C-198.17519341 76.75734687 -200.78528199 76.29928622 -205.3125 75.6875 C-205.869375 75.460625 -206.42625 75.23375 -207 75 C-211.99738127 60.00785619 -205.678682 39.68195015 -199.12011719 26.18994141 C-194.96323357 18.11574534 -189.95337493 10.87171469 -184 4 C-185.9078287 2.77646788 -185.9078287 2.77646788 -187.75805664 3.43041992 C-190.19803009 4.33748663 -192.63484954 5.24775723 -195.0625 6.1875 C-195.9898999 6.54481201 -196.9172998 6.90212402 -197.87280273 7.27026367 C-227.40965937 18.91967254 -254.56023476 34.61297222 -280.125 53.3125 C-280.89465088 53.87493408 -281.66430176 54.43736816 -282.45727539 55.0168457 C-287.52761663 58.77521471 -292.31241357 62.77480537 -297 67 C-295.06950207 71.33295939 -292.04968119 73.70033681 -288.375 76.5625 C-287.70549316 77.0891626 -287.03598633 77.6158252 -286.34619141 78.15844727 C-257.52028874 100.5819511 -221.74262606 123.84062307 -186 133 C-185.01 132.67 -184.02 132.34 -183 132 C-183.020625 131.0925 -183.04125 130.185 -183.0625 129.25 C-182.96880734 124.37798165 -182.96880734 124.37798165 -182 122 C-178.25192104 120.75064035 -174.88493032 120.34920657 -171 121 C-168.38879555 122.36156672 -166.31574236 124.17229988 -164.125 126.125 C-162.90157997 127.14440823 -161.67500849 128.16004623 -160.4453125 129.171875 C-159.85524414 129.66236328 -159.26517578 130.15285156 -158.65722656 130.65820312 C-144.15824911 142.39750484 -125.22640386 146.1676575 -107 145 C-86.18821583 142.31189871 -66.52974813 132.54882544 -53.45703125 115.859375 C-40.69375542 98.1575452 -34.57752307 78.06366659 -37.49609375 56.30078125 C-41.79633318 34.60522301 -52.88654908 16.96267616 -70.8984375 4.03515625 C-102.75955783 -16.87119601 -144.8693786 -12.41964609 -171.0703125 15.63671875 Z M-44 3 C-43.6596875 3.42667969 -43.319375 3.85335937 -42.96875 4.29296875 C-25.24321661 27.15702113 -17.4292251 52.40657019 -20.21826172 81.2578125 C-22.66794662 99.09875141 -30.24170661 114.5223993 -41.14453125 128.56640625 C-42.99786156 130.840168 -42.99786156 130.840168 -44 133 C-9.29453958 123.02851985 24.00069369 104.73179352 52.24169922 82.37597656 C54.06816641 80.94665567 55.92124867 79.55975594 57.78515625 78.1796875 C58.69334106 77.50172119 58.69334106 77.50172119 59.61987305 76.81005859 C61.25338831 75.59077317 62.88835504 74.37343298 64.5234375 73.15625 C66.83181554 71.1464319 67.93421718 69.8249665 69 67 C60.75627357 59.02142267 51.37445069 52.56231985 42 46 C41.35756348 45.54834473 40.71512695 45.09668945 40.05322266 44.63134766 C15.96875318 27.8039688 -14.73516018 8.246594 -44 3 Z " fill="#000000" transform="translate(370,102)"/>
<path d="M0 0 C6.84856489 0.63549781 13.67327297 0.67671902 20.54711914 0.71582031 C21.92078404 0.72883819 23.29444153 0.74265988 24.66809082 0.75723267 C30.43466622 0.8179369 36.20121567 0.87249645 41.96801758 0.90625 C88.15414536 1.19193114 88.15414536 1.19193114 97.00415039 9.18847656 C97.48239258 9.76726562 97.96063477 10.34605469 98.45336914 10.94238281 C98.94450195 11.51859375 99.43563477 12.09480469 99.94165039 12.68847656 C101.22872463 14.63795384 101.63173917 16.24523476 102.14086914 18.50488281 C102.91157745 18.30443359 103.68228577 18.10398437 104.47634888 17.89746094 C111.79637094 15.99686663 119.12036836 14.11280739 126.44919014 12.24645996 C130.21546472 11.28674758 133.97998039 10.32106974 137.7409668 9.34082031 C141.38126649 8.3922761 145.02553582 7.46062939 148.6729393 6.53979492 C150.05284351 6.18842985 151.43130568 5.83134236 152.80810928 5.46801758 C163.51309901 2.64922373 175.10083696 -0.05571148 185.64086914 4.56738281 C192.0627328 8.32137865 196.38263491 13.29436305 198.66821289 20.41113281 C200.40225043 28.09248921 198.94886205 34.66186272 195.14086914 41.50488281 C187.61384969 52.11399658 172.58407229 56.12513066 160.99975586 60.93652344 C156.78142011 62.68884682 152.56896186 64.45521621 148.35571289 66.21972656 C147.49678436 66.57904266 146.63785583 66.93835876 145.75289917 67.30856323 C138.07264909 70.52469232 130.41779834 73.7981916 122.76950073 77.08944702 C118.4771458 78.9354101 114.18155113 80.77382464 109.88639832 82.61326599 C105.98753484 84.28342631 102.090094 85.95680605 98.19458008 87.63476562 C93.96049636 89.4577555 89.72206356 91.27031694 85.48095703 93.0769043 C83.87223445 93.76408073 82.26490314 94.45452605 80.65917969 95.14868164 C59.88644327 104.12329975 41.00859787 108.84960622 18.20727539 108.31347656 C16.95457855 108.28629547 15.70188171 108.25911438 14.41122437 108.23110962 C9.17962742 108.112269 3.95016285 107.99168586 -1.27880859 107.78491211 C-5.13817453 107.63928915 -8.99374611 107.5643862 -12.85522461 107.50097656 C-14.02725937 107.43792831 -15.19929413 107.37488007 -16.40684509 107.30992126 C-21.54222854 107.27617773 -24.60608631 107.39586473 -28.54605103 110.88296509 C-30.83347332 113.66682922 -32.85784853 116.51142887 -34.85913086 119.50488281 C-35.97256475 120.84635383 -37.10311562 122.17424102 -38.26538086 123.47363281 C-38.77689697 124.05870605 -39.28841309 124.6437793 -39.81542969 125.24658203 C-40.32485107 125.82682129 -40.83427246 126.40706055 -41.35913086 127.00488281 C-45.20264907 131.40820197 -48.99015701 135.84003423 -52.67163086 140.37988281 C-63.63620895 153.89342186 -63.63620895 153.89342186 -66.85913086 155.50488281 C-70.84472052 155.88088184 -73.18492711 155.87129789 -76.73413086 153.94238281 C-79.52518394 150.74088075 -79.85913086 148.72382552 -79.85913086 144.50488281 C-77.77178039 140.37824587 -74.86870148 136.98138258 -71.85913086 133.50488281 C-70.86945134 132.34871514 -69.87987076 131.19246277 -68.89038086 130.03613281 C-68.1343457 129.15634766 -68.1343457 129.15634766 -67.36303711 128.25878906 C-65.01419055 125.51948489 -62.68739134 122.76168063 -60.35913086 120.00488281 C-59.44513342 118.92540064 -58.53107069 117.84597374 -57.61694336 116.76660156 C-55.75324932 114.56447553 -53.89444536 112.35834116 -52.03881836 110.14941406 C-35.9969388 91.07378678 -35.9969388 91.07378678 -32.85913086 89.50488281 C-30.96719602 89.42384604 -29.0723222 89.40823649 -27.17871094 89.4230957 C-25.98599075 89.42962662 -24.79327057 89.43615753 -23.56440735 89.44288635 C-22.26561142 89.45432175 -20.96681549 89.46575714 -19.62866211 89.47753906 C-18.27740326 89.484491 -16.92614041 89.49069976 -15.57487488 89.49620056 C-9.83987834 89.52058092 -4.10498686 89.55559132 1.62988281 89.60083008 C5.14001555 89.62801077 8.65008397 89.64479771 12.16030312 89.65569878 C14.12019932 89.66474532 16.08003324 89.68509601 18.0398407 89.70582581 C29.650472 89.73762407 41.17763035 88.86138686 52.25805664 85.21582031 C52.92102753 84.99832123 53.58399841 84.78082214 54.26705933 84.55673218 C60.73005651 82.39362042 67.00823175 79.82561706 73.26586914 77.12988281 C74.54480293 76.58560059 75.82403272 76.04201353 77.10351562 75.49902344 C80.04768698 74.24782723 82.98965036 72.99159206 85.93041992 71.73242188 C91.98374727 69.14195363 98.04500328 66.57020753 104.10571289 63.99707031 C114.62113328 59.53140425 125.12969166 55.04987922 135.63450623 50.55932617 C141.36085675 48.11297761 147.09144901 45.67765061 152.83277893 43.2666626 C155.66503273 42.07609672 158.49358359 40.87693132 161.32125854 39.67553711 C163.13726069 38.90782988 164.9584409 38.15240683 166.77978516 37.39746094 C174.36546808 34.17431 174.36546808 34.17431 180.14086914 28.50488281 C180.31865226 25.80859702 180.31865226 25.80859702 179.14086914 23.50488281 C174.700433 20.54459205 171.25940677 21.64999668 166.14086914 22.50488281 C161.37045172 23.50857146 156.65084523 24.68541712 151.92602539 25.88378906 C150.5800464 26.2193735 149.23388698 26.55423499 147.88755798 26.88841248 C144.37414534 27.76203488 140.86271126 28.64333638 137.35180664 29.52697754 C131.70956733 30.94619307 126.06495058 32.355844 120.41921806 33.76109123 C118.45351997 34.2519237 116.48905752 34.747484 114.52467346 35.24354553 C112.74152992 35.68917091 112.74152992 35.68917091 110.92236328 36.14379883 C109.87552872 36.40725601 108.82869415 36.6707132 107.75013733 36.94215393 C105.14086914 37.50488281 105.14086914 37.50488281 102.14086914 37.50488281 C101.90625977 38.0965625 101.67165039 38.68824219 101.42993164 39.29785156 C92.70969144 54.22795978 60.45247555 59.80860276 45.17211914 63.83300781 C38.3885793 65.53949992 32.15449865 66.92525808 25.14086914 66.50488281 C22.15704084 64.51566395 20.53810073 63.11985713 19.66430664 59.56738281 C19.37918458 55.60568679 19.59301832 54.15352705 22.25610352 51.00048828 C25.55046915 48.1505386 27.73675647 47.44860482 31.96118164 46.51269531 C32.61347244 46.36120529 33.26576324 46.20971527 33.93782043 46.05363464 C35.32717156 45.73150821 36.71824382 45.41672909 38.11080933 45.10879517 C41.73958042 44.30238446 45.35242072 43.43101221 48.96508789 42.55566406 C49.67591019 42.38393173 50.38673248 42.2121994 51.11909485 42.03526306 C63.04152385 39.10640495 74.6832436 35.01623456 85.14086914 28.50488281 C84.15086914 25.53488281 84.15086914 25.53488281 83.14086914 22.50488281 C68.44082113 19.65347011 53.54369081 20.31691043 38.64086914 20.44238281 C34.67657659 20.47119518 30.71227892 20.49477879 26.7479248 20.51356506 C24.29598625 20.52572375 21.84406655 20.54322844 19.39221191 20.56687927 C13.84786967 20.59943429 8.62588748 20.40191141 3.14086914 19.50488281 C-21.85686556 18.22108614 -48.29837892 18.21483571 -68.10913086 35.81738281 C-69.70050798 37.37168959 -71.28361998 38.93449555 -72.85913086 40.50488281 C-74.75023803 42.21844649 -76.64637699 43.92646799 -78.54663086 45.62988281 C-88.48864828 54.70362311 -98.2234764 64.16929638 -106.85913086 74.50488281 C-108.12545182 75.98791437 -109.39632036 77.46707453 -110.67163086 78.94238281 C-111.23495117 79.60109375 -111.79827148 80.25980469 -112.37866211 80.93847656 C-114.81244275 83.51353207 -116.01272148 83.51999009 -119.67163086 83.87988281 C-123.10032399 83.82367473 -123.86242431 83.50261857 -126.85913086 81.44238281 C-128.85913086 78.50488281 -128.85913086 78.50488281 -129.60913086 75.25488281 C-128.49583972 69.68842713 -125.60960055 66.66936539 -121.85913086 62.50488281 C-121.18237305 61.74788086 -121.18237305 61.74788086 -120.49194336 60.97558594 C-112.92643767 52.55946123 -104.96989451 44.52004191 -96.98413086 36.50488281 C-96.1048291 35.6209082 -95.22552734 34.73693359 -94.31958008 33.82617188 C-67.86411088 7.43585159 -37.59091971 -3.98618408 0 0 Z " fill="#000000" transform="translate(177.859130859375,281.4951171875)"/>
<path d="M0 0 C13.59832039 11.63337426 20.35817443 27.20652762 21.90234375 44.75390625 C22.53590991 60.13689273 17.36859029 75.18090368 7.25 86.75 C5.74944177 88.29084167 4.2297503 89.81338957 2.6875 91.3125 C2.07390625 91.94671875 1.4603125 92.5809375 0.828125 93.234375 C-9.95244716 103.64638059 -24.67555382 108.31477413 -39.42578125 108.40234375 C-56.90951503 107.99729905 -71.94988995 101.56043681 -84.14672852 89.06616211 C-95.24707674 77.09360407 -100.73151579 61.54503329 -100.53125 45.2734375 C-99.40883406 30.080736 -99.40883406 30.080736 -95.484375 24.8984375 C-92.35559844 22.61375533 -90.18593379 22.74506463 -86.42578125 22.9296875 C-83.26793671 23.50171849 -82.15083918 24.72520783 -80.3125 27.3125 C-79.735 28.3025 -79.1575 29.2925 -78.5625 30.3125 C-75.67629377 34.16077498 -72.93483932 35.9999839 -68.3125 37.3125 C-62.29151835 37.73019923 -57.98016502 36.20222085 -53.3125 32.3125 C-49.5625346 28.0150944 -49.06783973 23.90593998 -49.3125 18.3125 C-51.04211277 11.04292454 -56.46401929 7.40525019 -62.3125 3.3125 C-63.88191198 1.74308802 -63.5574847 0.17115006 -63.625 -2 C-63.68107422 -3.16982422 -63.68107422 -3.16982422 -63.73828125 -4.36328125 C-63.13884059 -7.63545736 -61.94168755 -8.68656349 -59.3125 -10.6875 C-38.6767153 -17.81429162 -17.22500195 -12.77898136 0 0 Z M-34.3125 5.3125 C-34.0959375 5.88355469 -33.879375 6.45460937 -33.65625 7.04296875 C-30.26123448 16.92937968 -29.79828322 26.90552283 -33.86328125 36.67578125 C-38.53611291 45.17756392 -45.17702683 51.06063455 -54.3125 54.3125 C-63.5860551 56.61234166 -72.44517502 55.6083199 -81.3125 52.3125 C-80.66202358 64.02107556 -74.67700861 72.39901881 -66.3125 80.3125 C-55.41299435 89.23881928 -44.01152333 90.66109203 -30.3125 89.3125 C-19.03044752 87.06411943 -9.93073268 79.51546534 -3.3125 70.3125 C3.11441418 59.27352564 4.56655792 47.51451508 2.00390625 34.96484375 C-0.0405009 28.93341852 -3.12663312 24.07607732 -7.3125 19.3125 C-7.81394531 18.70664063 -8.31539063 18.10078125 -8.83203125 17.4765625 C-14.51777856 11.14062024 -22.5582404 6.52507849 -31.0625 5.4375 C-32.67125 5.375625 -32.67125 5.375625 -34.3125 5.3125 Z " fill="#000000" transform="translate(295.3125,122.6875)"/>
<path d="M0 0 C2.4375 1.5625 2.4375 1.5625 4 4 C4.70476018 8.93332128 4.77041398 10.84437903 2 15 C-2.15562097 17.77041398 -4.06667872 17.70476018 -9 17 C-12.34238038 14.85744848 -12.89167954 13.39717502 -13.9375 9.5625 C-14.00779003 5.55596849 -13.53249114 4.05645482 -11 1 C-7.44544736 -1.79286279 -4.2131487 -1.05328717 0 0 Z " fill="#000000" transform="translate(181,194)"/>
</svg>
